<mxfile host="app.diagrams.net" modified="2023-02-21T03:35:31.702Z" agent="5.0 (Windows NT 10.0; Win64; x64) AppleWebKit/537.36 (KHTML, like Gecko) Chrome/110.0.0.0 Safari/537.36" etag="Sv5v5ulpFM9H3MJ5-1iP" version="20.8.20" type="github">
  <diagram name="第 1 页" id="d_t5dALJStzk_zqQmZ6V">
    <mxGraphModel dx="684" dy="473" grid="1" gridSize="10" guides="1" tooltips="1" connect="1" arrows="1" fold="1" page="1" pageScale="1" pageWidth="827" pageHeight="1169" math="0" shadow="0">
      <root>
        <mxCell id="0" />
        <mxCell id="1" parent="0" />
        <mxCell id="LuIQuzxRRM_9D2CJ-Mg1-1" style="edgeStyle=none;rounded=0;orthogonalLoop=1;jettySize=auto;html=1;fontSize=18;labelBackgroundColor=none;fontColor=default;strokeColor=#f47668;strokeWidth=5;" parent="1" edge="1">
          <mxGeometry relative="1" as="geometry">
            <mxPoint x="229.5" y="106.84999999999991" as="targetPoint" />
            <mxPoint x="172.5" y="106.84999999999991" as="sourcePoint" />
          </mxGeometry>
        </mxCell>
        <mxCell id="LuIQuzxRRM_9D2CJ-Mg1-2" value="" style="shape=image;verticalLabelPosition=bottom;verticalAlign=top;imageAspect=0;aspect=fixed;image=data:image/png,iVBORw0KGgoAAAANSUhEUgAAAM0AAADICAYAAABLcWXaAAAAAXNSR0IArs4c6QAAIABJREFUeF7tXQmYHVWVPqc6nQ4YCDNGXIaBqEiSV6ceSyOL7IhLFJBRUcAVEXAUZVEZARmXQVFBUcB1FBlXxA10VHBFVAS1SXh17kuiEYKCgwOMIMukk3515juZ19gJ3ek6t6pe1euu8339Jd/X55x77rn196269ywINaXyABE1RWS3IAh2138BYD4APKb77/j/VdeD+oOID+i/InK3iCxHxBVBECxvtVq3pRqwZqqsB7CylpVoWKPReMLAwMABInIAAOwLALsDwEBOJt0PAMtF5EdBEFz/wAMP/Grt2rXrctJdq+mBB2rQdJ3cbDYVJP8kIvsDwNN74PvxIR4WkZ8i4k1BEFzRarVW93DseigPD8xq0DQajbmIeEwQBMeKyHM9/Je3yHoAuEJEvuycuyZv5bW+fDwwK0GzdOnSJw4MDJwEAMcCwOJ8XJmvFhH5WRAEX5w7d+5lIyMjG/LVXmvL4oFZBZpxsCDiSSLypCyO65WsiLggCC4bGBi4bMWKFff1atx6nKk9MCtAs9tuu203NjZ2aj+BZZIlu01EPjs6OvqRNWvW/LV+qMvzwIwHTRRFR4nIOwBAj4lnAv0aAM5h5h/MhMn04xxmLGh0d+l0Ou8QkdP6cWGms1lE/tU592/T8dW/z98DMxI0M3B3mWrlv4OIZ8VxHOf/aNQap/LAjAMNEb0FAC6YRUt+ByKeEsfx1bNozqVOdSaBZoCILgGAfy7VoyUNjohnxHF8UUnDz6phZwRoli5d+rSBgQEFzHN6tHp3A8Dt+iMityPixh8AwCRJFgVBsJOILAKA8Z/temGXiFzqnHtjL8aazWP0PWjCMGwEQXCliIQFLaReLP6n3tQDQDw0NHT7yMjIw5ax9FBi/fr1CiaNY3shABxmkTfyfpuZjzTK1OwGD/Q1aBQwiPhjAHi8Yc5pWDVS+VoR+fbo6OgVa9asGU0jlJZHA0KDIHg+ABwFAIenlTPw/ZqZ9zLwm1mXLFny2CAIjgiCQO1PROSOIAh+Ohu+rfoWNF3AOPNqb0FARL6kYJk3b97VIyMjGo1cOC1ZsmTRwMCAAuj5iLgsxwH/wMw75ajvEVUa3Jokyb9PEYL0PwDw2SAIrm61Wj8rYvyydfYlaKIoOlAjg3N03rVBEFzQarV+lKNOsyoiejkAnA4Ae5iFJxdYz8xDOenaqCYMwyMR8SsAMC+F3t/oqy0iXhzH8V9S8PcFS9+BJoqiSERaOXn39wBwITN/Iid9mdXsvPPOQ1tttdXpInIGADwus0KAVcy8NAc946D5ISI+06JPRH4LABc75z5qkasqb1+Bhoj+EQAYALbNwaEfTJLkwna7fVcOunJXQURPBQAFzutzUP4FZn5FVj1hGL4WEfW1zJduUPAws+5UfUt9A5pGozE/CAJ9R84UQyYi3xKRC9rt9s/7YdWI6GBE1J0n64nYBcx8ZpY5E9HFAJDHkfZVAHA2M6/MYk9Zsn0DGiL6eve4NouvPs7MefzlzmKDlywRXQkAR3sJ/03oncz8Ll8dRPTN7omfr4pH5BDxTxp4Gsfx5ZmV9VhBX4AmDMPTEDHrbXemB6bH6zLpcDkB5xBmvs5nPlEUXVRAAOwnROQc55yeuvUFVR40jUZDK8D8BACy3Kq/npk/3hcrMo2ROQDnOmY+xMcXYRgeioi5nzBqtZ4gCHTX+Z6PXb2WqTxosr4SBEFwdKvV+lqvHVvkeESk0QkvzTCG965LRBodofdKRZC3XUUYM5XOSoMm62sZIj6vX/56WRediD4CAG+yyk3g93pNIyKNvvg+ADQzjD2lqIhc5JzTU8PKUmVB02w2n5wkyY0AsL2P9xDx+XEcf9dHtl9kwjD8oEY3+9iLiNfEcewVgdBoNHYMguBsADjZZ+wUMpcx8wkp+EphqSxoiOjDAHCqj1dE5FPOuaIW1MekwmSISI/htVabmUTkVc65z5kFuwJEpK9pGsVwjK+OKV+BEL8Wx3HW08K8zdqor5KgaTabe3d3GfOkEXF5HMd5haGYx++1gEYQzJs3T0vgDnqMfXOSJPu2222tt+ZNjUZjd0R8OSK+LOfg2R8w87O9DStIsJKgiaLoSyKiNcms9FdEXDST4pzSOCCKon1FRG/bfeitzHyhj+DmMgWVyPI+7ctjTpPpqBxoulu+ntCYKevrhnnACglEUXSKiGginpXuAIA9mfnPVsGp+PMGT5bvr7zmNFFPFUGjcUkvsU5WRN7tnNNSTbOWiOgyADjewwFnMnPudRX0MEdE3uP51rD5NHLbET38s4lIpUDTaDT2DoJAT8ys9EVm1g/SWU3NZnP7JEn0OHhXoyOYmTWmr2OUS8VORHqg855ua5JUMpMxIeJr4jj+rLeCnAQrBZooii4VkTdY54aIe8ZxPGKVm4n8URRpyd1PWueGiMcXGQemhzudTuc91rSCzeeBiEeVnR1aGdBEUfQUEVkBANtYFnw2HS+n9QsRafLXcFr+Lt9PmPlQo4yZnYi+AAB6yuZF2pKk0+kcmPXEz2vwrlBlQENE+j3yTutk6l3m0R7LsNv0JIKCiDQn57XWtZ7AX2q4TWVAE0XRjSKyt8WR9S4ztbc8d5tLmDlLaE7q5cuYm7M+SRLdbW5KPWCOjJUAje8BQL3LTP0keO42a5j5aTk+X1tUFYbh+Yj4Np/xRORq55xW8+k5VQI0Pq9m9S4z/bPis9v0Osg1DMMPaWbq9LOZlOMIZva60/Mcb6NYJUDj82pW7zLTL7vnbtOzVzSdwfDw8Najo6Oao7PP9DN6FEcphRFLB43nq9lXmDn3IEGPRau8CBFpudwdDYb29BVN7Yqi6DAR8e230/PdpnTQEJEWatCCDRaaMZmYlkn78PrE8YnIM51zWrm0ZxRF0bka1eExYM93myqA5j8A4JUWZ2ndZudc2yIzW3nDMHw9Ilrrjb2Xmc/ptc+iKPqeT5ftXoO8dNCEYXibRiYbFihm5kKyBg029A1rFEVLRMRUKklEbnLO+XxjZPJLFEXDSZL8GBGtde0+zcwnZhrcIFwqaMIw3BkRf2ewF7QqTRzHXtmKlnFmEm8URezRVeEJeUY+p/VnGIZvR0RrW8SHgiCIWq3WbWnHycJXKmgajcargyAwBeBp0Tzn3LezTHq2yRKRVuJ5nXHer2TmzxtlMrMPDw8vGB0d1UvLxUZl2rz3vUYZL/ZSQeOT0rxu3boFdUtw21p3e5BqoT8LfYSZS2ny65kbpJHakWWCvrylgiaKoquN5VZ/zswH+E52tsotWrRo3vz58//XMn9E/FYcxy+wyOTJS0SrPHYbrwo7VrtLBQ0RaVdiMhhdaqCewc7KsRKRFlw82GBYz/5yT2YTEWlSnDYdtlBPno+yQaMdxx6T1iuaa+Oc+1ha/prvbx4gIv0+sSTqPcTM88vyoWcPop7UEygNNN0sQ1NeOiK+JI7jr5a1kP08rk9wZBAEj2+1Wv9d1ryJSA8ETG0QgyCY32q1HirS5jJB41OmqSfvrEU6vCzdPpecQRDs02q1Sgm/Vz8RkZ6GnWXxmYi8wDn3LYuMlbc00Pic6NSRANbl/Rt/t+3f1RYNIrLMOXeNRSZPXu3NAwD6LZaaROR9zjkT0FIr7zKWCZqTRcTUtm9wcHD75cuX322dZM0P0Gw290iSxFRHQURe7JzTvkClERH9AQC0A15auoKZfWrmpdVfXmpAGIbnIqIpQI+ZSwN5ao9WlHH33Xd/3IYNG0zfJ1WoI0dEGjdnacR1IzPvW+QylPYQhmF4CSKeYpjc3czsVQzdMMaMZiWidQBg6fZcejS5x7fYXcz8xCIXsjTQEJGpKCAiujiOLXc6RfqtL3UT0RoA0Aa4aan0An0+32IPPvjgVmvXrtU/EIVQmaCxXrb15Ay+EC9XRKnHBWdPLgu35B6fbzFEXBrHsUYUFEJlgsba9LTNzGEhXpglSj12mtOYWZtHlUae32KFJtGVCRpr3eF7mPlxpa3eDBiYiLSlRuqWHCLyauecJgmWSkQ0BgADaY0ouqFXaaDxqULCzOq4JK3zar6/eaDRaDwhCIL/svikFxeFaewhIu38/HdpeLs8L2Lmbxj4TaylgcYnJzxJkie22+27TDOsmTd6IAzDpyPiryzuQMSD4ji+3iJTBK+1OIg2l4rj+EtF2KI6SwONZ0GNXZm5VZQzZrJeInohAJguKhGxGcexRqKXSh7R8K9l5s8UZXSZoHkFAJj6PQZBcFir1cq9j31Rzq2S3m67C+1jaqEdmfmPFoEieIlIu7ylvrAUkVOcc9ZiIqlNLxM0hwOAKW1ZRI5zzn059exqxkc8QETaIvDNFpckSbJNu93W9I1SKYqim0Vkd4MRb2HmDxr4TaylgUYrj4iItoSwUOlHoBZjq8RrvUwGgAeZ2dT2pKj5EtE9APBYg/63M7M2kSqESgMNAAREtEH/NcystLx1g42VZCWiWwDAUvrqemY+qOzJNJvNxyRJYtrtik5WLBM0eqJzIyKmbq9Rh9L4PcKLFy9+0uDg4J1G6Ur8gSKipQBgLQxZaN5V2aCxBm1CkiQ7tdttDRevKaUHiOg1AGA6TarKxWYYhi9GRFO2btEpJKWChohOAIBPp1z7cbZS6nEZbawUOxHp4YmpYHyFjputtQ3+yMyWgu/mtSoVNI1GY68gCEzptCJyuXPOp+232TkzRYCI9Nh4B8N8KhOy5GH7tcz8XMNczaylgmbffffd6oEHHtBMzNQVaQDgDma2ZPKZnTKTBIjoGQDwC+OcfsjMzzLK5M4ehuEhiGjqXiAiFznnCi1bXCpo1MtEpAuqC2uh/ZhZL7xqmsYDRKT58tZyrRcy81vLdq5nh7wTnXPWV37TVEsHjU/Ba0Q8K47j95lmOkuZiUjb6z3fOP3Dmfk7Rpnc2X0KtydJsne73TbF2FkNLx00RKR3B3qHkJoQ8Zo4jpelFpiljEuXLn3iwMCAttlYYHDB7QsXLtz5uuuu03D80iiKoqNF5EqjAb9g5v2NMmb20kHTfUW7FgCebbS+523jjPaVzu75evMp59zJZRtPRAqYo412nM3M5xtlzOyVAI1nlfiet40ze7dEAd1l5syZ8xsReZLRjEJzUdLY4hlipap7EgVfCdAsXbp0p4GBAc3pnpfGqRN46t1mCof57DIAcFeSJE8rO0gzDMNPIuJJlmdBRH7knDvMIuPLWwnQdF/RfLbjereZZOUz7DKfY+ZX+T5Mecj57jIicoZz7qI8bJhOR5VAY86v6U6u3m02W2XPXUZbMxaa8Tjdw6i/99llVG5sbGzxqlWrfptmjKw8lQFNo9GYGwTBCgDQAD0L1bvNBG9l2GVWMPNwmTUYiMjrD6eI9PTwojKg6b6inQ0APnkQ9W7TBU6GXeaNcRxfavlrlSdv9+rh+wDweKteRNwzjmNTnWrrGBP5qwYaDY/ROxtL5RGdz6/WrVv3rNnei7PZbO6TJIk+eNbksVXbbLPNHr/85S9NLQazPHibyxKRz7UD9HqXUbsrBZrubqPF6d5kXRBE/HIcx8dZ5WYK//Dw8ODo6OgPAMAncazU8rNRFF0kIl5NcXu9y1QVNHsCwK99HmZEPC+O43N9ZPtdxqeOnM5ZRNYGQbBHHMd/KcMHRKSt2rVlu5nK2GUqCZrubnMFALzU7MX/fwie65zTrX7WEBFpL03NOzGTiJzrnDvPLJiDgE/Tpk2+LXr8LTM+duVez7qg0QBDDTT0ocoUhPAx3irjmQ68cRjdZZIkecbKlStNlTetNk7G71PxczM9PQmZmcz2SoJGDc3yngsAenxqKfmTx3NQio4oisZEJHWd44lGJklyfLvdvrwMw4lIgfoEz7G/ycxa/LAUqixodtttt+3Gxsa0Hcdunp4pvU2Ep92pxaxF9CYqLjMDloh+DgD7pZ7opox3IuJhRbbSmM6uyoKmu9scJSLaksOXLmDmM32FqyznUar1kenoa1mn0zlk1apVa3s5x5133nnboaGhlYhoDSKdaPurnHOmyqx5z7HSoMnhNU1VfIyZ35C348rU55OcVfZrWRiGz0FE/QO4la/vROSjzjlLy0nfobYoV3nQ5PCapjFV/xHH8asL8WAPlepf6q222uoGbQ3vO2wZr2VE9M/6x8vXZpUTkaudc/odU3qrlcqDJqfXNFXzdUQ8saz7iCwPjMouWbJkl8HBwW9kAQwArBobG1vWy9cyIjoHALIead+QJMlzyk5ZGF/DvgCNGktEWrxbi3h7k4j8bGBg4MRWq7XaW0kJgmEYNoIguDIjYNYHQXBQq9W6sRdT0BypOXPmnC8ix2Yc78EgCJ7aarVM7dwzjtnfr2cTrY+i6FKt05vRIVoDTA8ILsmopyfiURSdrrkixrplj7JNRJY5567phdFhGL4IEbXwyc5Zx+t0OotWrlx5e1Y9ecr3zU4zPmki0iopz8vqhG49rQvjOP5eVl1FyHcLS5xu6csylR361945p1EWhVMYhucj4ttyGqiSpbr6DjTdVzUtiG3Nu5l0HTV+SXce59yanBY6k5ooivYVEQWLtajEVOP25OY8iqLjkiR5k6Wg/TSOKrSIeZZF6kvQdIGjYezWmgJT+Urfl7VA3gVZnJlFttls7tDpdM5ARAVMXvR1Zn5xXsom00NEWkVIo9KttdW2ZFZlAaNG9y1ousDR7gF5lqj9PQBcKyLXOue+VeTDprq7vVf0YRv/sTQu2qJ5RdSGI6KnTvQ3Ir5aRPKuKVBpwPQ9aLrA0aSrIuoO36EAAoArmVnHyIUOPvjgOffee6+C5J9E5EUAMD8XxROUIOLX4jjO6/VOwb23iJyaw0nYdFOtPGBmBGh0EmEYmvvcTLd6m/1ei7Rrj5QYEW9PkuR2EfnDdPcGejG7fv36RQMDA4uSJFmEiNpsVS/o5hjHT80uIpc6596YWmAaxjAM90NEjRUrkjR487n90rm7r1/PJq4iEX0AAHpdtPteANDj0NsVTGqPiCwCgPGf7Yp80ibRnetH/y677LJw7ty52k3b0nbQOuVrO53O8WWkJ1gNHeefMaDp7jjvRsTZmLn51yRJTs07zD+KoveLSJEBrxcODQ2dPTIyor1X+4ZmFGi6wDmue7GW5wFBlRdUv7u0m7G1U/a0cyKib+i317SM2RguHhwcPG/58uX6CtwXNONAo17Xb4kNGzZcjogv6ItV8Dey0JwhItK7Kz0xK5oSRHzXQw899JFbb731/qIHy6p/RoJm3ClhGJ6GiD0pVZp1IYzyvxSRdxVdCyGKojs9Cqgbp7IJ+90icv5DDz308bVr167LoqhI2RkNmnHHEdHyDBmgRfrfrFvb442Ojr6zFzXefAsPmif1aIFVInKJc+4TVUgF2Ny8GQuaRqMRBkFwpIi8IMfQjhyeh1xU/FBE3umcs/bSNA3eaDT2DoKgJ1HRUximVTM1uPYrJsMLZp5RoNlhhx22WrBgwVGIqB+v+lPYfUjB65JKvaYta/hPkiTfKOrIlojeog9uKoOKY/pCkiTva7fbrrgh0mueEaDptsnTfiYa0vHk9NOfUZyfQcRvxHH83bxnFUXR8SJyWd56jfru01PROI7fb5TLnb2vQTMOFm0A1OMP1twXIkeFX0XES+M4vj5HnZo5uigIgoMR8SBE1Dz/ltbdRsTFIvJMANCfoTzHnELXDwHgrCKO2NPa3pegqcGSanm1LfglvQpNWbx48TZDQ0OHJEnyXAA4xqOIfapJdZnu6wJHDwp6Tn0HGiJ6KyKeVu8sqZ4VPba9tNPpXNrL7EdNc0iSRIGjqc57pLLUj+kzg4ODZ/X6YrRvQBNF0fNE5F8A4EA//85qqT8j4gfiOP5Qr72gqc8A8EpEPLKgsW9JkuSUdrtddFDpI+ZXHjT6Lj1nzhwFi1aXrymDBzTHptPpvKeXD9i4uUSk6Rsn+Ba2n2baGkVwcq+OpisNmm6rdAXMDhmelUyiIqJ9HH+PiPci4j1Jkui/Gt18bxAE946NjW38d2ho6N7777+/s/XWWy/odDrbBkGwIEmSBUEQbKv/IuK2IqL/Lu5etFImw/yFExE5T0QUPOv91fhJNhqN/RHxBE1g89MwtRQinhzHsaavF0qVBE2j0ZgfBMGHu3+ZCnXABOUbEJFFhLvd2EY2bNgwsnr16geKMECT0e65557dRERrVe+KiPqv/uSelDaF/XppeR4za6GSnlO3i7PeAem3T550ZtFp65UDTbPZ3CNJEu2Gtn+enpxE1ygAXAUAPw2CgEdHR1cUBRDLPPQvcRAEGmh6VB4lkKYbu/uto7t5KRSGoYLmTETMs8tDoYGslQJNGIbHIqLuMNsXuII/15rC+tNqtW4rcJzMqrthLHqEezgAaIe4QggRtR7C6XEc31rIANMoHR4e3np0dFQTCDV3Z+ucbCgMOJUBTcHBgbeKyFXagaCMj+A8HoJxABV1kavfbkEQKHByjyhIO/9Go7F7EAQKnLxe2QoBTiVAU2CGoD4An1u3bt1Va9as0dexvqeiL3YR8c1lHE1PXJgoijTCQ8Nl8kgXzx04pYOGiLRJad7Hyb/oFpjoSVXJMpBYJHjKagA70Y9EtKcCBxEPzcG/uQKnVNAQkYa2PyMHp4yr0GoxGndV+LFjjjZnUlUgeK5i5qJTnaebe0BEWhM6c8GUIAj2zav4e2mgISI9ys3reFUrwXz0vvvuu/SOO+7QypuzjrRK/8DAwNsB4LU5Tv5aZtaDiFJJT9i6dR92ymjIjsysBfAzUSmgISLJZPUEYX0NQ0S9b/hzXjr7WU+3cLqCJ6+ySz9l5oPL9on255kzZ47uOt67HyLeFMexvtlkagzVc9DkCBj9i6F1vr5Q9oJWbfzh4eEFo6OjChy9PMyDfsXMe+ehKKuOMAyvylIwBRH/PY5jzb3ypp6CJi/AiMjXkiQ5e+XKlb/znvksEOwWJ9dOZHkEuf6CmYu+cE61KlEUfU9Esrw2ZjoY6BlocgKMxkqdw8yZOqKlWpkZxERE2u9S+15mojL6dU5lMBH9GAAO8Z1QEASHtVotrR5qpp6Ahog0lz3rR9yvkyR5c7vd/pl5lrUARFH0Ni2PlNUViPjGOI4vzaonD/mMp6/ax/MQn6DVwkEThuF3EXFZRidduW7dulPWrFnTN1UYM863EPEoipaJyJcBYEGWAUTkaOfc17LoyEuWiH7tG2Kk90DOOXPXtkJBQ0T6GqUNZr3Jd2LeA84CQSLS/P4oy1QR8VlxHGu+fulERD/N8N12BDP/p2UShYGGiF4DAJ+xGDMJ75v6paFsxnn2XJyILgaALC05NKdI22PkXkPaxxlE5Nvg6+ahoaFDR0ZGUpfDLQQ0zWZznyRJbsjSaQ0RXxLHsfaEqakgD+QQ89fasGHDstWrV/+pIBNTq202m09OksQrSltE3u2ce0fawXIHzVOe8pQFW2+9tSY4LUlrxOZ8WU42fMecrXJE9FEAeH2G+WunuJdmkM9NlIjUDp94w7s7nc7T0xYfyR00WS+fkiQ5Pu8+K7mtygxVRESfA4BX+E7P+pfad5w0cr5d8SzfzrmCJut2LyLnOufOS+OcmidfD2TtRSMiL3POfSlfq+zaiEj7EmkgsLU/0f1jY2N7rVq1SmtCbJFyA00Yhkci4tXTDbiF32e6pc0wbi3a9QAR/QAADvN0yH8HQbCs1Wrd7Cmfm1i3IMslVoXaliWO4zOmk8sFNN3W3tf5npcDQA2Y6VaqR78nIi0y3vAc7vqhoaFlIyMjD3vK5yZGRD5dv9cFQfD0VqulxVWmpFxAk+W1LO9uxLl5fZYq6lbJeQgA5vq4oOxCHeM2E5G2nTfdv3RlP8bMbygUNN2gQO376EPfZ2aNFsgUqu0zcC0ztQeazSYlSRL7+khE9i+6d04a24hIoxa0wqeFtJXhXnEca2+cSSnTTtP9q6SvZftZrOryauLYMmZe6SFbixTsgTAMX4yIXvdkInK1c05LUJVKzWbzmUmSmKMWpjtJywSaMAzfhYj/6uMZRDwqjuMsBwc+w9YyBg+EYfh2RPw3g8hE1hOYueyeNhCG4RcR8TjjHNYMDQ01pmrV7g2aRqOxVxAENxmN2ciuhcydcx/wka1leusBIvo8ALzcY9TV69ev3/+3v/3tPR6yuYl0iy+aI+NF5Fjn3KQXpd6gyXAh9l1m1o+0mvrAA41GY8cgCH4CAE+xmluhQwGNgdRYyNSkiY7OuaMnE/ACTRRFh4mInulbSYtvH1iFj0Sr4bOZP4qil4mIV1q5iOzlnNPw/dJIy0EBgNUGPRAI4zhetbnhXqDxDZXRAhhxHJ9bmvfqgb09QETadexkDwWfZWbTX3mPMaYVIaKvA8ALp2XclEGzhN+bGTTapAcRfRKQfnPfffcdOFtLLBkXq3LsRPR4ANAUY/PFZ5IkB5adcRtF0XEi8kWjY29m5uHMoMmQm/1CZv6m0eiavUIe8D2GRsQvx3FsPcHKdeaLFi2aN3/+/La1+7eILHPOXTPRGNPrmW9r7CqUOc11BWaxMiLSNihv8nDBs5nZ5zvYY6jJRXwyiUXkfc65s7xB45mPfWen09kvba5Cbh6qFRXige5rml41WAulfJOZrd8Uuc6BiLRQoEZAW+hGZt7XCzTd0qBalMFEiHhWHMdaGbGmGeIBItIihBd4TMecj+8xxhZFoij6kYiYiqonSbJTu93WdOqNlPr1jIi0zdzzjJNYuWHDhr2r0GHMaHfNvgUPdL8PdLexlr4tvah6GIanaQqAcYE3iW5IBZowDA9FRHNhNRF5g3NOC9XVNMM8EIbha7XEq3VaZVex8bmz2fwgIxVooii6XEReZXTQo94FjfI1e8U94Fk66QpmPrbMqRGRXlhql+20dBczPzH161kURZGIrACAIO0IXb5X1MXJjR7rM/Zuh4IrrWYnSXJAmW0ciejT1s7h2oXbOXdLqm8aItLASmtTHc2TeY7VmTV//3mAiL6UgqXHAAAHMklEQVTdbaRrMb7UKAEfsIvIic45BduWDwJ22WWXhXPnztXUT70NTk0icqRzTp1Z0wz3QIYLzz23lOhVpNu66fkPGsf4ODNvLHW1xW8aIjoBADaiKy2JyE3OuX3S8td8/e8BItLQe1MbjukSvYr2ChFp5LalWdUj3+jTgUb7yx9hmUAVugNb7K15s3vA8yTtdwsXLmxcd911Y9ktsGsIw/B9iPgvBslRZp63xZ2GiJYCgMbqWOi+gYEBuuWWW+60CNW8/e2Bbtr7cgAg40xeyszmgwTjGJOyR1F0lIiYYiFFJHTOtafcaXz6mdQxZnksZ3/q8IwSKK2kbbcrtqkGNSK+PI7jL04JGiL6JQCYvk2SJDms3W6bL0H78zGprZ7oge6hke42Oxg8M9bpdBpltYG0NhsbD96cFDRRFB0kIlplxkKV6AJsMbjmzdcDPu07EPFtcRy/P19L0mkjoq8AwEvScQOMRwZMCpowDD+EiKenVbbx46hCbeUsdte8+Xmg22ntuxaNZZ62enyC3MDM+00KGiLSWmSWVhnrOp3Okjr83/K4zExeItKO2ztbZjfxtt0il5XXWvtARP7knPuHR4HGszTTV5k59TaXdbK1fHU94POKBgBvYeYP9npWURQdKCLaejA1LVy4cPBRoCEiDZmx1iR7JTNrfayaZrkHfF7REPGaOI6zNjM2e96ne9rY2NiTJwON1mV+tsGCPw8NDS229Cw06K5Z+9ADHq9oY0mSPHViolcvpt29X9pgGUvrVG8CmiVLljx2zpw51oqIn2bmEy0D17wz2wOer2illLGNouhOEXmSYUVeuglofMoz1cGZBnfPElaf2/ayKtZEUXSjiOyddmk0TGxz0HwWEV+dVsH4aUJa/ppvdnhgeHh469HRUQ2l2s4w4z8ws7VYh0H95KxRFH1VRF6cVpGIfGgT0BCRvpo91qCgEi0V0tpb8/XOA0SkcV2mdhtBEAz3uv2gx53klY+AptFohEEQbLFt2iQufzszv6d3S1GP1C8e8Ol7WUZNCSJ6h7avTOtXEfneI6AJw/BERPxUWuEu33OYWXsb1lR7YBMPdLssP1L2KKV7Ps/Mr0zJmwubFTQA8PNHQENE2oDneIslIvJY59z/WGRq3tnjgTAMb0bE3Q0zXs3MlkgUg+rJWT1A05oIGmuFjhYz75rZ6lrBjPWAxwMJg4OD2y9fvvzuXjnFw8bbNoImDMO/R8R7jYbW9zNGh802ds+j5+fHcWwK+sziV49Gy1/fCBoiOhwATIUwEPF1cRx/MovBtezM9oBPmIqInOGcs1bA9HZktzb1XWkViMhJ46DRxjWbVEafTkmSJHu32+1fTcdX/352e4CI7geAbQ1e+CQzv87An5k1DMNPIuJJ0ylCRDd37ty9xkFjrcwBQ0NDc6fqfjvd4PXvZ48HwjC8HhEPMMz4OmY+xMCfCysRSQpF+zHzDeOgWWtsncDMHKUYpGaZ5R7wiEP7L2a2xILl5mEi+jAAnLq5QkTUWgJnan0A/Z2CJiCijnHknp+nG+2r2SviAZ/aeQ8//PB2t956q77W9Zy61Tc1Fm0YEVeIyM0i8p2JVytIRE8FgDUW63r9sWaxreatlgeazeY+SZJokZbUVPXvZfRsb34IM1sLb6R2Ws04czyw6667/kOn07nDOKNjmFmLXlSS0Cd8RrPXVq1apd9BNdUemNYD3dd/S9eJM5nZp9PatLbkwaCvZ+bjZmZO1dcmDwNrHf3vgTAMb0PERWlnIiIfdc6dkpa/13wKGu2jeUzagUVkrXPuyWn5a77aAx7Hzt9m5iOr6jkFjVbjONBgYCnn6Ab7ataKeYCIvgAALzOYVem4RgWN3uo/Pe2ERORy55wpGjqt7ppvZnogDMPztZKmYXb3M7Ml69OgOjurgqYFAJaLyncy87uyD11rmC0e8KhkCUmSDLXb7fVV9JGCxloRsZTCblV0Xm1TOg8Q0RsB4OJ03P/PhYh/H8fxXywyveJV0PzRUum9jm7u1dLMnHGI6DUA8BnLjIIg+MdWq2W937EM4c2roDEV0xjv0eE9Yi046zwQhuExWqLJMvEgCJa0Wq3VFple8SpotGHnY9IOiIhHxXF8dVr+mq/2QBiGRyCitqJMTWVUpklrnIJGgzVT39YGQXBYq9WqGzel9XDNp5nBhyKi6ZkJguDAVqulDXArRxp7xtpL0GDZjsys30E11R5I5QHP+LPKPmcae5a6qmYdDZDqGamZJvEAEWkkvUbUT0tVf850pzlJRNLm+l/IzNqKo6baAyYPGJPR3svM55gG6CHzeObmbzTpZrpx60DN6TxU/35LHkh5J/gLZt6/yp6cWPdM+7kfPZmxmu7Z6XRe2G63b6ryZGrbqu8BIpqy/5EWrojjmKo+i80LoL8CEZclSaKpntsDgCaarajDZqq+jP1lX7dAnz5jwyKSAIBmdrp+ec7+D+YL077/xu1rAAAAAElFTkSuQmCC;fontSize=18;rounded=0;labelBackgroundColor=none;strokeColor=#f47668;" parent="1" vertex="1">
          <mxGeometry x="100.5" y="77" width="61.5" height="60" as="geometry" />
        </mxCell>
        <mxCell id="LuIQuzxRRM_9D2CJ-Mg1-3" style="edgeStyle=none;rounded=0;orthogonalLoop=1;jettySize=auto;html=1;entryX=0;entryY=0.5;entryDx=0;entryDy=0;fontSize=18;labelBackgroundColor=none;fontColor=default;strokeColor=#f47668;strokeWidth=5;" parent="1" edge="1">
          <mxGeometry relative="1" as="geometry">
            <mxPoint x="315.5" y="106" as="sourcePoint" />
            <mxPoint x="380.5" y="106.15000000000009" as="targetPoint" />
          </mxGeometry>
        </mxCell>
        <mxCell id="LuIQuzxRRM_9D2CJ-Mg1-4" value="" style="shape=image;verticalLabelPosition=bottom;verticalAlign=top;imageAspect=0;aspect=fixed;image=data:image/png,iVBORw0KGgoAAAANSUhEUgAAAMgAAADICAYAAACtWK6eAAAAAXNSR0IArs4c6QAAFIBJREFUeF7t3X+QXWV5B/Dvc3YToBbDjEowP+7d5YeCSHLPhlRSSieREoehIpQSnRFpMfdsAmgxTluLyAQrA6i0AgFJ7t1grO10StRYkQp2CrTYYoW9d9mGEJiY3XP5pYBADAaS3Xvezrm7C5vk7u758Z7zvu85z53B8Y/3x3Oe5/nknHvv2XMJ/FKWgd29i1d2io5zPCHOJMJ7hcA8AvYS4XkB2gmBHzaFePj4zXVXWZA535hyfvxKDt9dXTpTWPgKgVYEC4BuFWL01q6+waFg43mUrAwwEFmZDLiO69hfAPC3AGYHnNIaJoAXLWB9oVrfGGYej42XAQYSL3+BZ7tr7A+giZtA+GjgSe0HbixW65fHXIOnB8wAAwmYqDjDWjg83A3g1DjrvD2XthartVVy1uJVpssAA0m4P+TjmAiYkSRcutbyDCTBLCeHg5EkWLaDlmYgCWU6eRyMJKHSMZCkE5seDkaSdC35DCI5w+njYCSSS8hnkKQSqg4HI0mqpnwGkZRZ9TgYiaRS8hlEdiL1wcFIZNeWzyAxM6ofDkYSs6R8BpGVQH1xMBJZNeYzSMRM6o+DkUQsLZ9B4ibOHByMJG6t+QwSMoPm4WAkIUvMZ5CoCTMXByOJWnM+gwTMnPk4GEnAUvMZJGyisoODkYStPZ9BZshY9nAwkjBIGMg02couDkYSFAkDmSJT2cfBSIIgYSC5B+IngP98dyosDCTXl1iTD56RtGsFBpLbN+lt24GflnJIWhhIgAvR/Lwf4cutQ9uBgQQA4g9hJAETlbFhDCREQRlJiGRlZCgDCVlIRhIyYYYPZyARCshIIiTN0Cm5BOI3eHFTfUecmjGSONkzZ27ugLzV2BZWMZIwjZrP70lyBeSQf/WfACMJIySX37jnBsgUl0SMJCSRvN2WkgsgM7xfYCSMZMoMZB5IwDfTiSMh4LcAHm1XCQGcAmBu6D5VOiEf70kyDSQgjok2SwKJD+J7oxAPnFAdaItjYnO3d/EfkOj4mIC4EMAJSns/8ObZR5JZICFxSEcS5xOyRu+SlZ5oXkqgTwbuVWUDs40kk0Ai4pCKREa/Dpfta4lav4ir+Su7SDIHJCYO7ZAMlUvLLdA/g3Cc3kqyiSRTQCTh0A6JH1DD6dkmIC5gJOlmIDNAJOPQFIm9WQCfTrdFwu6WrTNJJoAkhENXJE8J4H1h2zbd8dlBYjyQhHFoh2Sod8nJlvCeTLfho+yWDSRGA0kJh3ZIhntLZRJUjdK26c4xH4mxQFLGoR0St2xvAeHP0m34KLuZjcRIIIpwjHUH4Z5ipX5+lFaROWe4t3QeCfqRzDWTW8tcJMYBUYpjTMhHi9WaFo057NguAYXkGlvmymYiMQqIehwYKVbrs2W2TZy13LJdBaEcZ41055qHxBggGuDwe2lTsVpfm25TTb1bo3fxSiGs+3WJJ1gcZiExAogmOOABl3dX6xuDNUI6o1zHfgnAu9PZTdYu5iDRHoguOPzW8Dw6t3tz7T5ZbSJjnYZjPyiA5TLWSncNM5BoDUQnHC0gZJ3SXenfmW4jTb+buUBaH3ho/yxgbYHohqMFZOTVo7q3DL/JQGRmQG8kWgLREYffEkfN2n/0sd/c8brM9oi7ltlnkImj1xeJdkB0xeGXskM0Fy7oG3w2blPLnJ8NIPpebmkFRGccrRJ6zdMKmwe3y2zwuGtlB4ieSLQBojuOViOTd1ax8vhP4za1zPkNx35dAO+QuabatfS63NICiBE4AAjg2q5q/Xq1DfT27r9wSks7QT/XJR55ceiDRDkQU3C0ii/wWLGvvlReI8RbyXXsLwC4Kd4qus7WA4lSIEbhGO8jQdaSrkp/TYe2ch3bP3toA1Z+TtQjUQbERBxjZxFxXbFv4MvymyH8iq5ji/CzTJuhFokSIMbiGLvM+jVZ1ocKlf5fqGw1o3MYOnHqkKQOJBOFJXFLsTKwLnSdJU/IRC4D50QNklSBZKWgBIx6ZH1Ih/ciWclpMCfpI0kNSAYL2V+s1k8PVthkR2Uwt9MkLF0kqQDJcAEfKFbrZyfb/sFWz3CO2yQgPSSJA8lB4TYUq/W/CNbGyY7KQa4nJTAdJIkCyUvBCLSlUK1dlmz7B1s9Lzkfy0bySBIDkq9Ctar1KARdXuyr9Qdr5eRG5Sv3ySJJBEi+CvR2o4//zNo39o/itpO+Vff/VlzZK181SA6JdCD5KsyU/e//UdUdhflzvkTXPTQaRslw75Ie8prrCn0Dl1Lr/sjor3zVIhkkUoHkqyABGjfCbSmTbh/xCq+dOJu2bm0G2GnKIfmqiXwk0oDkqxABWzYeEH+TkZfIesfplf6RgDu2HZav2shFIgVIvgoQolXjA/E32194bf87aeuOAyF2PmxovmokD0lsIPlKfMgWlQPE33SfN/Lqu+I+USVftZKDJBaQfCU8JA5/uDwg/mqvv0TW3NMr/fsiRPLWlHzVLD6SyEDyleiILSkXiB/EniPebM4/7juDv40YUWtavmoXD0kkIPlKcIxWlA/ED+aVN5r7uk6+66m9MSJjJAGTFxoI4wiYWfmXWJM3fnmUrBNPqPTvCRENv3Gv1laFzVcoIIwjZHqTOYNMBPErb0Sc3L1l4LWQUR00PF81DX+5FRhIvhIZp+UmzU0WiL/RC5Z34IMLNz/xSpyI81XbcEgCAclXAuO02iFzkwfib/jsm2TZ76/0vxwn8nzVODiSGYHkK3FxWqzN3HSAtD6Ymj2Kpe+NeYNkvmodDMm0QPKVMMk4kn2T3i7YoaYYWXZ83/ZfxTmSfNV8ZiRTAslXouK01DRz0zuDTASxS5D1h12V/hfiHNF0tRfASwQ841/aCdCzJMRvALGAiBYIYCGABQCOiLN/unOnR9IWCOOQVKL0gfj3xz9tNbGicFf9+ThHcVAPEO6Bh+/uOzDr3lP+4ee/nm7d3eUPzu2kWZ8URJdACDtODOnNnRrJYUAYh8SyKAAyHv2THaK5Mu5vmfi9UNxU3xE1Iw3H/oSAuASg86Kukd689kgOAsI4JJdDHRAQ0fYR0HknVPobko8q9HJD5dLnLKL1AI4JPTnVCYcjOQhIw+m5X0CsTDWmLG+mEEjrMwJgcLaH8+dtrruq0zzklEodsNYLiAtUxzLD/huL1frlE2PeAtJwer4uIP5S8+DNCk8xkFayiOrCG72oq29wSIfkuY59A4CrdYhlqhgIuLxQrW9spc//n2HHPpeAf9M5aCNj0wHIWOL6iayPq37g9kQNXcf+NoBLda2pAF6EaJ7h/6PSAuI69n8BOEvXgI2NSx8grTOJ1cSqhZtru1TnU3z2xCMabxx9LwhaPJWyfT7o1mK19jlqlHvOEiR8IPySnQGdgIy9J3m8E96qBdXHn5Z9qGHXe2ZN6SSvSf8Ban13ouWLyDqR3HJpPYiu0zJC04PSDMj4NfVgk6yPd1f6d6pO73Bvz2dIiA2q45juvQgNl+3/IcIyXYM0Oi4NgbTySbR9lodV8/pqT6rOr+vYPwFwjuo42u0vILaR69j+pxtdOgZofEy6AhlTcm+xWvtj1Tl2y6VzQOQj0e5FwP/5Z5D9RJitXXRZCEhnIBZ9qrip9o86pNl17O8CuEiHWA6Kwf+5PbdsvwzCu7QLLgsBaQykMH/OrLCPRU2qJK5Tuhog//sRrV5C4AA1HHtQAKdpFVlWgtEUCAEPFar1FbqkeahcWm4RPahLPJPiGCbX6bkbEBdrGJz5IWkKBISri5X6TTolWMdLfSHwCLnlnktA4js6JSszsegKRNCnin16vP+YqHXDsR8UwHKdak+gm2n3arvYYWFYp8AyE4umQDwhVnT3DTykU55dx/4BgI/pFFOTvI+M32rScwsgrtIpuEzEoikQ/xtiXe7LmqizbvdnCYgHu6oDHx67WbG8qBvU8TMCjs1EY+pyEJoCOXDk3iNP2rBrvy5p8uNwHfs2AJ/VJKYD8MSHi5sH/nvS7e72WgHcqUmA2QhDUyBHdDTnHrdx8EWdktxw7K8I4EuaxPQ3xWr9q34sB/9FoWP7QNZqEqT5YWgKhCwsLWyqP6ZTghtOzzYt/phK4J5iX/38idwc/jfp/LGvvL7RFIhl0UULN9W+L+9A46/kOvZzAObFXynWCk/AwqrJf4ff/qkmjCRWlt+arCkQEK0rVmq3yDnI+Kv4f45rgerxV4q1wmE4DrvEmrw8f4EYK9ljkzUFQoTvFyp1be59css9vSCxSULGoy7RFse0QMY+WeBv2aNmXGcgfmyeoGXdfbWfxTo+SZMbvfb3hMCfSFou7DJT4pgRCCMJm+tDxmt6Bhkv/O2Fal35x6pD5Z4zLBKPxMx01OnT4ggEhJFEzb2+l1jjR/Ra56zORfO/+aj/GFFlr4ZjbxDAZxQEMCOOwEAYScTyaXwGaRWf6JZCpbYu4tHFnvbcFUsXjo6MDip4oFwgHKGAMJII/aA5kNZ7ERIXdlcG/PugUn8Nl0u3E9GVKW8cGEdoIIwkZCkNAAJgwBsRK+L+lFvIzMAt25eC4D8fK81XKByRgDCSEPU0A0jql1pDvUtOtoSX9gMjQuOIDISRBERiCBD/aIQQd3T1DST+ZvmFy+z3HOhE2veBRcIRCwgjCYDEICBjzSC2ze7w1iZ1I2PDKV0hQHcEyJzMIZFxxAbCSGaoo2FAxhviUSHENcW+gX+X2aXDjr2B0v84NxYOKUAYyTRtZCCQiaMh4PaOWZ1fi/s9icIf0YmNQxoQRjIFEoOBtI5I4Blh0deE5f2oe+NA4D/L1uBn2KTgkAqEkbRBYjqQSYfkP2UQoP4mvP+cJaydo8AeyxN7Zo809+w95qiOzjdHllnCOwNEywSwjIB3yrxEC7GWNBzSgTCSQ8qYISAhGlTlUKk4EgHCSFr9sQ8Ct+3eNefaFQ89NBqmY4bX2MvIo2sAYcAPX4Y5ssTHSseRGJDcIhH4JRG+Rd6BmxdufuKVOC3hOvYfCdCVpP9v+sU5TFlzE8GRKJAcIvkhkfV52Y/T0fW5tbI6W8I6ieFIHEhukJCoFCsDayQUu+0Sw6tLZbKomtT6Bq+bKI5UgGQdiRDihq6+gWuSbjL/2WVEHbuT3seg9RPHkRqQrCJJ+ynpz6xdPN9rWs8a1MRJhZoKjlSBZA2JAJ7uqtbfn1QHTLVuo7d0gRC0Le19NdovNRypA8kOEtrrCe98VQ+Adh3b/7GZqzVq2rRCSRWHEiBZQOIJXNHdV1f6mNaGYz8ugEVpdaYG+6SOQxkQw5EM/U5z3+L33PXUXpVN4/b2/DWEaD0/NgcvJTiUAjEViQCu76rWr1XdlI1P2/PQAf8s8m7VsSS8vzIcyoEYiGR/Z2fH4vl3PvZUwk0RaHnXyfzvuijFoQUQk5AI0A+6qrULA3VvCoPc1aUzYdFPU9hKxRbKcWgDxBQkBFxf0ODyaqJbh/68dIw1i15V0b0J76kFDq2AmICELPpEYVPtXxJujlDLD5dLO4ko9e9jQgUZbrA2OLQDojsS8pqnFTYPbg9X72RHa/PDM3IOUyscWgLRGUmxWm/7eypyeiPaKm65tB5E10WbrdUs7XBoC0RXJAeOnD3npA3/+xud2mrYKf09gZQ9X1dSLrTEoTUQHZF0iObCBX2DWt0sOOzYfQSsltSoKpbRFof2QLRDYuHUyb9fp6KbDt3T8B850hqHEUB0QiKa+P2uu+qqfuylrUfXse8D8BEdsIaMQXscxgDRB4noLVYHtPrLPtexfwlgbsjmVD3cCBxGAdEEyb8Wq/ULVHfXxP5D5dJyi+hBXeIJGIcxOIwDohoJAaPkHZgb94klARtpxmHDjv13BHx+xoH6DDAKh5FAVCMREJd0VQf+SYeec3t7ahDC1iGWADEYh8NYICqREOG+QqV+boCGSHSIW7b/FIStiW4ib3EjcRgNRCkSiMsK1YEt8von/EquY/t38Z4ZfmbqM4zFYTwQVUgIeJx+98hlC7/xyBuptxsA17H93ze/TcXeIfc0GkcmgKhCAogvFqsDN4ZsmNjDd61ddOysUesREB0fe7FkFzAeR2aAKENCYlWxMpDq+wBDvjnPBI5MAckDEsaR7Cmv3era3b4dNwVKmiiFM4mS4wpfjMycOSYOPXNAlJ1JEnpPsnv14t/rIOsGEM4O36+pzsgcjsxdYk1uBxX/4vo/o9ykji92V/p3ymjNRm/PlZ7wbiTQ0TLWS3CNTOLINBB1ZxI8B+CrXoe4J8wPXx6Ee419NjxcCrT+0/2VWRyZB6IQSaupCfhxE+Lu7gBfKrpr7A+gKS4G0cUATtVdxXh8mcaRCyCqkUw0ugAaBNEgQQ3//wtgDhEVAFEA4P83xxAUE2FmHkdugOiCxDAA04WbCxy5AsJIpPHMDY7cAWEksZHkCkcugTCSyEhyhyO3QBhJaCS5xJFrIIwkMJLc4sg9EEYyI5Jc42Ag4/2h4raUGVtT/YDc42Agk5qQkRwkknGMpyOTd/NG/ceXkbQyxzgmNRADOURTzpEwjkP6gYG0Od3kFAnjaNMLDGSK67GcIWEcU/QBA5nmDUtOkDCOaXqAgczwjj7jSBjHDPVnIAE+8sooEsYRoPYMJECSMviNO+MIWHcGEjBRGULCOELUnIGESFYGkDCOkPVmICETZjASxhGh1gwkQtIMRMI4ItaZgURMnEFIGEeMGjOQGMkzAAnjiFlfBhIzgRojYRwSastAJCRRQySMQ1JdGYikRGqEhHFIrCkDkZhMDZAwDsn1ZCCSE6oQCeNIoJYMJIGkKkDCOBKqIwNJKLEpImEcCdaQgSSY3BSQMI6E68dAEk5wgkgYRwq1YyApJDkBJIwjpboxkJQSPYbEvhPA2jhbEugnwhLripvqO+Ksw3ODZYCBBMuTtFENx17rAV8m4NiwixLo5kK19ldh5/H46BlgINFzF3nmcHlRN1HnVYC4KuAiDwvgxq5q/ccBx/MwSRlgIJISGWWZRu+SEyC8czyIlRboRCEwTwBHE+F5IfACQdxPsB4o9NUejrI+z4mfgf8HOU2ZaInszWUAAAAASUVORK5CYII=;fontSize=18;rounded=0;labelBackgroundColor=none;strokeColor=#f47668;" parent="1" vertex="1">
          <mxGeometry x="237.64999999999998" y="74.14999999999986" width="62.85" height="62.85" as="geometry" />
        </mxCell>
        <mxCell id="LuIQuzxRRM_9D2CJ-Mg1-5" style="edgeStyle=none;rounded=0;orthogonalLoop=1;jettySize=auto;html=1;entryX=0;entryY=0.5;entryDx=0;entryDy=0;fontSize=18;labelBackgroundColor=none;fontColor=default;strokeColor=#f47668;strokeWidth=5;" parent="1" edge="1">
          <mxGeometry relative="1" as="geometry">
            <mxPoint x="535.5" y="106.72000000000025" as="targetPoint" />
            <mxPoint x="462.5" y="107" as="sourcePoint" />
            <Array as="points" />
          </mxGeometry>
        </mxCell>
        <mxCell id="LuIQuzxRRM_9D2CJ-Mg1-6" value="" style="shape=image;verticalLabelPosition=bottom;verticalAlign=top;imageAspect=0;aspect=fixed;image=data:image/png,iVBORw0KGgoAAAANSUhEUgAAAMgAAADICAYAAACtWK6eAAAAAXNSR0IArs4c6QAAIABJREFUeF7tfWmYHNV19nt7me6ZnulZeno2EMhC090DjkMM9hMcx5DYnz8LISQhic3BsRMHG8tISJYB2wmb8xEjhCRksPHyhdgJGLTbQuAtCZjEcgLCdjBMd48sQEKzr93Te1fdPDXS8Eij6elbVbeWnqr6pUd1zrnnvOe+U7fr1L2HwL5sBGwESiJAbGxsBGwESiNgE8SeHTYCcyBgE8SeHjYCNkHsOWAjoAwB+wmiDDdbyyII2ASxSKLtMJUhYBNEGW62lkUQsAlikUTbYSpDwCaIMtxsLYsgYBPEIom2w1SGgE0QZbjZWhZBwCaIRRJth6kMAZsgynCztSyCgE0QiyTaDlMZAjZBlOFma1kEAZsgFkm0HaYyBGyCKMPN1rIIAjZBLJJoO0xlCNgEUYabrWURBGyCWCTRdpjKELAJogw3W8siCNgEsUii7TCVIWATRBlutpZFEKhYgoysjtwtFHFjNklC3jp6yOOm99Xviv3YInkzdZgTq0NL8oLz/kwCF3vrxN86XY49gd3dXzW10yWcq0iCTNwYen9yxHFILBLHdFxVHiScXkSCe7v7KjER88Xnob/oahfGEMtnUTcdk8NFxVo/3t+wK3q40uKsSIIMrgj/Jpt0/OFMsKW/Vi37YxdXWhLmk7/zLTcVSZDeJV25Yh5VMyeWqwr5jue6PfNpwlVaLPMtNxVHkOHV4dvTY44HSk2c2oB4Z9POWMn7lTbhKsnfoTXhL2ZGHZtL+VzTKN7RvDtW8r4ZY604ggytjPx3JkHeVwpMbx093LI/eqkZwZ7vPg2tDP9XJuF4f6k4q/30peC+aMn7ZsSn4gjStySSKeSJtxSYrirkOp7rLnnfjEmYLz71LolkinPkxl1Fs+3PRasrKd6KIsjY6sityTGyoxzAvkZsCOzu3l5Ozr7PD4HhVV1r0+N4pJzFuka6rnF39Ovl5Mxyv6IIMrgi8p/ZJPlAOfC8fvqrln3Ry8rJ2ff5ITC4IvxiNun4YDmL3jr6y5b90T8pJ2eW+xVFkN4ru1LFHGrKgefy0EzHs9GycuXs2PfZEei9smuymIOvnIbLg3THs91l5crZ0et+xRBk/LrQpxPDzu+wAuMPirc0PBV7jFXellOOwPCayCfTo+RxVgv+ZuFvGp6Of5dV3ki5iiHI0MrIv2cS5ApWsKr94ovBfbEPscrbcsoRGFoR/nkm6fgwq4VqP30+uC/6Z6zyRspVDEF6l3Yli1nUsoLl9iDV/mw3szyrXVvubAT6roxMFHLEz4qNy4vJjoPd73yKwqpnhFxFEGT0uvDHJ4cd/yIXoLpm8a8an44xP/rl2rflgfGV4TWJhGOnXCxqm8W/aHo69oRcPb3lK4IggytDP80mnP9HLjjV9eK/B/fG/lyuni3PjsDgNeGD2QnHlewaJyW9fuFnLfviH5Wrp7d8RRCkb2lkvJAl9XLBcVfTZPszUeZHv1z7tjzQu7RrtJhFo1ws3F460X4w2iBXT2950xNk+LrINelhskcpML6AeF1gZ0z2EkDpeFbSG10VunJy3HlQacw1zXRV89PRvUr19dAzPUGGVkYOZBLkKqVgeP30py37ov9Xqb6tVxqBgZVde3MJrFSKUbWfPhPcF12mVF8PPdMTpG9pZKSQJU1KwaiqphNtz5j/Ua40PiP1+pZGBgtZElTqg9tLR9sPRgNK9fXQMzVBJtaEPzYx6nhOLRC+JnFJwN6OqxbGM/THrun8UHLC9YJao/VN4hIzb5U2NUEGV0X2ZMfJNWqTUNNIn2nebe5HudoY9dYfWNn1ZC6BG9SO622ge1v2RFeptaOVvqkJ0rcsMlhIK3+ET4NWVUNH2w6Y+1GuVYK1stu3LNJbSJN2tfbdNXSo/UC0Ra0drfRNS5DktZ0fGhtxvgDwcJGioan4Af+uI4e0AtJKdsev6XpvYoIe5pWbxoBwed3Onl+YEUMes0+TuIZWRZ7MjBPVj/Bp52oasa95d7fq5ZomwVaY0eGVXf8/ncBf8XK7uoH+ILgneiMvezztmJYg/VdHevMp9Y/w05ZZw20HoorfuPAEvdJt9S/rOpZPYwGvOKp8tK/tR9EOXvZ42jElQYauD1+aHXG8REV+oUonaInewrvPP3DkNX5WrWfpxMfCYVFwRHnnxhsQ3xd8Kvay2RA1JUFGVkf+MTVGPsUbrNom8emmXbHredu1kr3hVZFH0uNkLe+YfY308cDuKLdlGy//TEmQwWXhY9m0g9sjfBosj48OtP4o2sYLPCvaGVgWOZpLk3fxjt1bIx5vORA7j7ddtfZMR5Dh6zq7sqOu10SRy+urM/BxOADqEc5d8Ez8hFrgrKh/7OpwhyPjOCFyXPpO4+hwgHqbihc1P93TbSZsTUeQ0dVd35wcw2e1AsnXRP8psCvKffmmlb9msju0IrIlkyRf0Mqn2kY81rS7+xat7CuxazqC9F8dOZpP8X+Ev7PMqqW9rT+MnqMELKvr9C+LxPNp0qkVDlU++kbbj6KLtLKvxK6pCNJ7Y9f5dARHhSLeObVdSVBz6ThdQD7naXzX878Z5217Ptt744qLG6o8uTGhqF2UThdEEsCijie739JuFHmWTUWQkVVd21PjWC8vBPnSNY3iN5p3x7i/iZHvSeVoDK7o+mo2ib/V2mNfAx4O7Om+TetxWO2biiADV0fiuZR2j/BpUKpr6bHgD6Pns4JkywEDV0dey6XIhVpj4fHRntYfRUNaj8Nq3zQESdwQak6OOvuFIpysziuVc7pASVVNbceBw2mlNqyk17vskhqaT08KRf5vFmfi6HRBqGsS2vw/iA+bAWPTEGR0dfhrk2OOO/QCxdcgPhjYE7tdr/EqeZzhFZEvpZPkfr1iqG0UH2jaHbtTr/HmGsc0BBlYEXktl9T+ET4NhreevtGy11xvTMwwIWbzYWB55Le5SfIevfzz1NHXW/dHL9JrPNMT5Piay6qdifFEsQiXXqA43aB9QzWeSw8fLug1ZiWO8/Ill7g7gulssaDdm8WZuLhcKAr+Bv+CXYcyRmNmiifIyLWRe1Ij5G69wfA10bsDu6L36T1uJY03uKprfXYcureS8AXovYGd0XuMxsoUBCnV+FFrcLx19EjL/qhmhS+t/dfD/uDyyMvZSXKJHmOdPoZZGrKagiClGj9qnRS3B2L7s92avzXTOg4t7fctiRQLeaI7RmZpyGo4QcavDd+RGHF8Tcskz2W7rgEbG/d0bzNqfDOPO7I89OnUJHvLCd6x+APinQ0GN2Q1nCBDK8IvZZIOw5puVvvp68F95nhjwnuCqbU3sDxyKDdJ/litHaX61XXiy8H9sZINW5XalaNnOEH6lnRlCnkY1nSzykOFtmejur09k5Mco2X7lnQVCnn93izOjNddhWz7c92GNv00lCAja8LrU6MO3d+QzExEdYNwc3BPnLl7ldETV4/x+5dHbsxPEsPbE/iaxNsCu2IP6xHzbGMYSpDBFZFfZpPE8Gab1X76SnBfVPc3NUYlnWXcoZVdL2QSMLxDl7eOHmrZHy3buJUlJiUyhhKEtSmnksDk6Li8KHYc7HbL0Znvsr1Lu3LFLKqMjtPopp+GEWRodeQzmTFimiabVX7c0Lav+ymjJ4QZxu9fFl6eTzv2m8EXyYfqRvrZ4O7ot4zwxziCrIw8n0mQy40IerYxa+rpL5v3Vk7/bi1xG1rR9fNMEsxNObX0ZYogfvpCcF+UuYErT38MI4jcppw8g57NlttLC+0Ho4YvKbSOk8V+79JItpglHhZZPWSMbPppCEHGrg/dlBxyfl8PcOWM4W4QlrbviT8rR2e+yZ5Y2vkRIev6mdniqgsKn2h8Kv7PevtlCEGGVkR+lkmSj+gdbLnxqv3034L7oqZZWpTzV4v7gyu6ns0msUQL22psVtfRnwf3R2U3clUzpqRrCEH6l0bG8wqacqoNtpy+u4bm2g9EDStalvNPj/v9V3Wl8hnU6DGWnDGqvHSizYCmn7oTZHB1eE12TH5fbTlgqpL1Ch8672D8RVU2KlT57Y9FLhML5Jdmdd/bKF7bsju2S0//dCfIyDWRZ1ITZKmeQcoZq7qeHgzujSpuGipnLLPJDq3s2p9JYLnZ/Jr2x1dPDwZ0zo3uBOlfGhnJq2jKqXXyqmqQbjvQ7dN6HDPa718WSebTpNaMvkk+VXnpaJvOTT91JcjQmq6lmVE8Y9YETPtVdDv/cNGPf/c/ZveTp3/Hlr7n3cgWXuVpUwtb1U24KrirW3Fvdrk+6UqQ4Wu69qYnlPfVlhucUnmfH7sC+7qvVapfiXrDK8M70wnHGrP7XlOPfc179esUpitBRj8RniB5+M2eBKGIDERirX6GhF7mdMPQT8tZ5gWtQqLp+7F6FlkeMroRhG5efLnQ7ngehwEIPFzX1kbv67rvMtU2oDLWOy6sgKRIKbkEcPaJV5Dbj6ju0c4CuG4EKW4N/QBBXI8UgApogjY57EBiUDd4WHKlmYy/haK2WYOmH7w9lk7Kkl6fDOEp18Y4twavc7mp2wwofiPUhzqc7O40AMA053fPDk8xTzB4RLND5nlPHVX2WhaLcFVRVTY0V5ZOUm49NUoS/a7PxVX3aGfxWReC0AfClwpt9KUzjh47CsAUp6+WgIkCvRY58KSjSzDomwqWKQqgGcDpXUNEwNlP3kfu0L7ppy4EKW4N/ROC+MuZcJBXAWr42Xmlk5QYdGByWBeIGGcKf7HaZgp/i3mXV6QaoH8wS9xD+J5rY/yT/BE506Iu2Rce7TxO/eTcs4KRDv38tdYhKrdfyBEM/X5+L7OCF4hwe0y8vPojALPs9SQJ+rZzbQ/3Rq9n/RFXPn3YNJNfW3xRdbvjVThKfBgp9XmKs9nSW0qaNn3z/G1W+4WCMV+ssiRT6hLSUEJQBM30iX9Qd6e2fe81f4IUt4S+hVbcPBce9DhA+lgQ019mYpAgNTw/nyK+ZhH1LeZ8etB2gJR7Pgzg265N8c9oOSs0J4jwaPgN6qcLywYRBZAoK6W7QCFLMHR0fhIkuEiE22tCgkil5Ej5VJMEedO5Nsa9Z/vpI2tKEPoPCxcW29xHiYuwjWPCIiKlQN88fZvV3iWAMTPlZysviVPFQBZztEipq7+wiHzpzTdZ5JXIsE1cJZYBFLaGHyZBuo5Z3aRFxIl+gtTo/HqK+JpE1LeZ8OkxXQxknDR0iOxwb4xp1vhVU4IUHw31wI/FjLGeFDNhETGfJRieZ8us5kWi9Pm4rNRoLnx6MZB1sASOuNbGNWthoRlB6I7FwWIt6SduIv9Pr9mKiJSgt1t+GKw5NkKuo0sEiIkIMrMYyAgKLVDRNUnbyLojQ4wqssQ0I0hhS+dm0kq+KMub04WlnQkmKiKO9RJkxucHSaobRDR2mIgc0jfEsxUDGScPHaAPujf1aNKQVTOCCI+EXqf16GKM8WwxkxURc2mCkTfnB0ECC0V4akxEkBLFQNa5QybQ7fx8XJMe7poQhN5zSY2wIDmBKpVH55upiDiPllmmWl7NVQxkZUgeRefxunpyD/++95oQRNgSupe24i7W+OaSo8cpSJ8mbsp2b+wEQWaisp8i1fUiGs8xx9ODtlOQBXxySwZwn3NTnHsjWD7ezZhqha+H/oc0qFlVzjBokiJiPkUw/FZlE6T5fBFVPhMQhLEYyPpXjI7jVfetce693LUhyHfDeeKhXNsJkFcAWmSFSyM5EeiNVvZOw46IAP06ns+eB+IC6Hv55ojmSMH96Rj3s5W5E6SwJfRl0or/xzd8wCw7EUeOE+SSlfkU8dSJCCwwwdNDZjGQdS7RAXzFvSl+P6s8ixx/guzoPEwaCee/DydDoQMAMXgnYj4FDL9VmU+R5vMFVBl84hc9HyDTOwNZZqgMGTpGX3Gv6+HaKYw7QYrfCWXhhXZH5xtcRKQi0Fehy6z2iAAFZVsZU7SMqMJiILMDWeRcfxPnerYyV4IIW0IbaCu2MgekUNDonYgjbzmQS3GFTiES7GreWoqm84zbOVhyZyB7CEySZAAbnZvi3Prec81ycUfnITTq0Ffb4CJiLgmMHK+sZVZggQBPHdMc00ZIZTGQ2akx+ivXuh5ujWG5EkT4dihNq3U6fMzAImIlLrMMXV7xKAYyMoRkkHHeHOfWvoEbQYQt4c/SVvpNxji4iBm5E1H67ET6/KQSLumzEunzEiMupp2BnB0jA+QW56YYlwax3DJcfLjzF2gif8o51vLmugEky4vxlsgmgdEKWWY1LRDgNWJ5JY2p/Gs85SkbpS+61vdw6fHOjSCFb4cmSfXUuXe6X/QVClLkFgqT/6IA9Mcq43dIW1iAQ2dXqYuCvFffnEwnjmaQct8c59LGgUsExW2d16CZ7GGaWVoIGbQTcej3ThRyWgTEz6bbAwQvMODcXY2KgazICH243nN7/GlW+VJynAgS3oVmulqtM6r0DdiJmJkAxk7o/KdZJkiN5wio1u0s9FPOKdkZKDOucuJ0mOx3b4itLCdX7j4XgtCtoXuFIJ+vd8s5POd9nYuIlbDM0n15pXUxkHGCkH76gPOLPXcyipcU40OQzRdeLLQXTXFGIn0VIDruRBw84kQxrzYN2ui7qoCWxfotr2g1QFTsDOSJgrPPeQm5vfsVtTa5EERygvn8K7Uel9PXuYiYHgPG+8y5zGpoF1DTWA4wjvf1KgaWcZnneVncCFJ4KHQPaQH3DSuK0qdjEVEsAv1xcxKkLSTA4VKEoHwlHYuB5Zyjg7jX/YX4PeXkWO5zI4g0WGFLZCtpFTewDKy1jJ5FRIkgElHMdEnEkAiix2VEMbBUXHTAsc29KbqRV9xcCTJFks2dt5N63I0awq3crzjYGIAJxdrMiqkxByZMsi142un6dgpfow7Vc+kNWZgZKu0E0zRNJ3Cv+/aezTwH4U4QybnsP3QuctaSg6SB5YRVnuGcbYscBqjGf0iFAjDQY65lVmunACfXPZ2zYOsEKNfdF8rmAp1At6uQv5Js4H8EqSYEmQ6z+FDnvyCAG+E07gRYkgKoDj0R+6NOiDr8wWaZQg4CtEldozS+yEUANeTbiVOBCZSKo+SJqo3xm7QKVVOCSE4Xt4RuInXYTmvQpFUQ5ezqsRMxNeLAxIDmcJYLdep+fSuFL6AtW7XcGcgSJElhpJh2rPNsjD7JIq9URreMFnaE/os04v1KHVWtp3ER0UzLLM2XV0YXA8fpIdetPR9QPScYDOhGEMmXwpbwdtJA18Kj8kA5hsBmFdH4OFOz9FbXtOe5ymNClaZuSi+HAh3HDvem+CZVdmQo60qQKZI8EPowqcP3UIdzZPjJR1TjIqIZeqtr3vPcoGIgmaTHHCnh42TT0f/gMxnYrOhOkGm3itvCP0Ez/SibmxylNCwiSp+cSJ+eGHlJn5ZIn5hochlVDBzFQdf6+FWaxFTGqGEEmXqabA59mdTTv0WNtKVfv4scB6hGPRGNXmZptbwi7QAt1zOQdwozSNEk7nJ/Ia75QSClXDeUIJJTdNvChUWX5yekgUp/n3S7aAwgGhQRJ4ccSAwZA6s/SFEb5P/2itYDROdiIJ3Aay5R/BhZd+Rt3SbFLAMZk8lZHCluDf0ATfQ6XWsmGvRELOSBIYOWWcHFAty8l1cyegZymcgCpRjD910bej7JxZ5KI6YhiBRH8cHwp1BHt8JXsju2ynBnqGuwE9HIpp+aNOXUc2dgGsNIuda6Nr6+k2+ilVszFUGmwyhsD71EArhUeVgyNDXYiTjR70BqVF9ofU0U9W2cl1c67gyk4/hP963xD8rInC6i+mZRRkjFh0Jfp/W4hXig/WshzkVEI3qrc+95rlcxMI8CSdCtzg3qd//JmF7MoqYlyNQP+AcXXyHUOJ6EH+3MESkUJL8DaFqh8gw16fz0vte15/Xpw7ZfKIBXMqXvsOm7+WAxp5Uk3qI58Qb3hiOHdBhN0RC8MFU0OKuSuC30M7EZH2GVVyTHuYg43u9AWqdlVk0TRQPP5ZUexcBRcsC1Pna1olzpqFQRBJHwKDwQ/jvSIH4ZNYTr6d1nYM2xiJhPEwzr1PSzeaGIKl5NObUuBmaQIgnyFeem2MM6znPFQ1UMQaQIU19f0FGFmudJA9WscTykt+69ivF8R1HPt1nc3l51ADhXfeylLNAJvOoi+Y+StW/2azcKX8sVRZDp0IsPhXbSJrqGuDRyn9NOxLFeBzLjGvl4CozqBorGDg5vr7TcGXiytvG4a0PPX/Odvtpb0zZ7Gvpf3Bz6BPzYAR80ORaN/Bqg0u8SFVcuQzDyhrbt2gLvEuGpVtdWjbgBKv3u0OAiaQwVM45bPLdFjTt5U0VcFUuQ6ZgL2zsPkwD/lm88diJSkaAvqi1B2iMiiEMlQTTaGUjH6YvuW/kcIq1ijqtSrXiCSNEXHwx/A430ZvCumQwCeFMVvhh9myCb0IYkXr+IpnPVkQMLAbSoi/Es7Rwpkkm62Xlb/CucLetubl4QREKtsPmCPyE+52740cYVxTcADCm3KLVqk1q2aXEFzhfhUdPzPAjgXXw9I0m84RDIteTW2Mt8LRtjbd4Q5J0f8FvD/4Yg/TOucP4OgMIiopbdqFR1jZIOZeJdDBwj+13r1B8YzTV3Ko3NO4KcfJpI+0xwF2o4ddtVWUQcPU6Q5dxb3VsnoklNz3OOxUCSoWlhktxRtTH+iMr5aDr1eUkQCWX6rY5mIV/7KzTgAi6oqygiarHMUrW84lgMpEn81uVLfZj85YkRLjibzMi8Jcg0zuJDnbvFJrKKxzER5G2AKigiavE2S+nbK9IBUB7FwOLUhrPvOG+L32yyOc3VnXlPkKm3XFsiNxCf+BithV81egqLiCNvEeRSfH6se3wiAucreHvFqRgonUlFc+SvXetjP1SNp8kNWIIg0zkobA/9mgRwseqcSJ1QZBYRc5MEI8f4ECRwnghPrUyCSMeQcigG0nH6gvvWnitUY1ghBixFECknwpbQDrEBa4kHymergp2IPN9mKXp7pXZnYA4CSZL7nRtid1XI3ObipuUIMvUD/tHQ+wTQZ+AniktkZBCgMouIw28S5NPKeSn5XlUjonmhvKcHWQhQxZFKbbbpMSfFcrK25zdcZl0FGbEkQU6rmTyPIL1ccb5kFhGzCYLRt9URpOlcEV6/DIKoLQaOYa9rXXyVYowqXNHSBJmqmTzY+UXiJ3+PGig6D0TOTkQeTT/lNOVUszOQpGlGSGFj1caexyp8jqty3/IEmVpyPXFeozDqPYwGBR9eFICpL38Z0zB01AFpz7qSy+2lkPaes1zSCFNf6CroETK1b6Mxezn5+LExlrHms4yyTM1TRIpbQ0+jEdfKrplI06iHDZTMBMHYCWXLrMZzRFTXM1JR2lImt4GnVNtI0Mec63tuYYtm/kvZBJmR4+K28GpSTf+R+lAnJ/30BEBOlNdQ0/STtSknPQcgco8GT2EMeXqTa13PwfJRWEfCJkiJXBe2h35LAniPrKnAWEQcjDtRlNn00+UCWliaciooBtJx+gv3rT3KX1bIAqmyhG2CzJEvYWtkK/WL6yGjZkJ/DZAyRcT0OMF4r7xlVkOHiJqGuZdX1A0QGcVAmoOIFO5zr4/fW1nTVj9vbYKUwZo+2nmxQMlPUQ/phWnZi04C5PW5xZQss1iWV/RCgNSWdfGkQIK+7XS4lpBbuqWP+e2rBAI2QRinRnFb6F/RjD9nEh+gwFtzQEuB/h723upTPc87Bcx5Mpz0bVYrYzotXttgyuEpIUZE5Zicv7L5LaENjlo8AB/Dy9MyRcTUCDAxwHb6Yn2rAF9gDlxZi4FpmkOWfN61Pv7d+ZslvpHZBJGJ51TNZMT7ChqndnPPedHfAaTETkQ5TT/naspJawDCsDOQTuB1V2P2g3Zto1zWzrxvE0QeXu9IF7eGn0AjvXHOmsnUTkTph/XsMPdFnZA+YpzrIg5A+jhx9osCf0TmLgZKb8sS9Juu9T2fUxiqpdVsgqhIf/Hh8HK48QTqqK+kmTmKiKkRgomBud9m1beK8AVKvL0qVwycxERRJNd718Z+rCJMS6vaBOGQ/sLDna+QptIvWOnbAJllJyLLMqvU8op2AGSOnYFm7bfBAW5dTdgE4QS3sDW8mfrpJnhKrKfiAKR97addEvgnyrRJOOdC4ezvvBoAlOjoSHOgjjS5y7ku9vecQrO0GZsgHNOfe2TxRU7ieB5+SO1nzrrobyhI/kzIk8MOJAdnT0NdC0Vd85k/UmgVBbm4RNoS6HXW4MPkU/Eox7AsbcomiAbpF7eFfyLO1gN+aifimT/a5+qtfnbPcwpcRIBZfvE4xsgPHetiKzQIx9ImbYJolH5ha+jztAbb4JvxnmvGcaZzLbPOWl7NdkxoGnlk6Wdd63se1ygUS5u1CaJh+k/tM3kZDVh0xjAzioiJIQcmZ/RWrw1S+E/veT5LMZCMI+poyn7Arm1ol0SbINph+45lYVvoe7QBnzjjWfKa1BHopEgxCwwePbOq3nqBAKfnlAlpSSUdujB9WeRMKh1SU3YImyBlIeIjkH0kdKXLQXa+UzPJAzjtCITeGW+zOi48rTgoHVR0akMwmURCpHSV+3M9P+fjmW1lLgRsgug8P87oAT9OgfjJFCQGHJgcOfnv2gCFv/XU26sQBRpO/j8do79yr+u5TGeXLT2cTRAD0l/YFroftfiS1I50eidiIQcM/f7kMit4gQC3B5jeGUiz0nLMcZ/7tujdBrhr6SFtghiUfvr4ok4h7fyPqbO5pCLiGNDbfZIgHV3Cyf3kUjEwgX6nX/hTctPvjxjkqqWHtQlicPqL28PPIkCXSDsRE6eOJvWfJ57cGTiKg6718asMdtHSw9sEMUH689s7P+P0kkfyLxOX5I77UloUs/hc1W3x75jAPUu7YBPEJOmXaibFAa+02IKrNRuyaxvmSIxNEHPkYcoL4Z87p3ptOG/q+baJ3LK0KzZBTJL+/BORS6o+Hj2T6wtGAAAA1UlEQVQsuXP6v03inmXdsAli2dTbgbMgYBOEBSVbxrII2ASxbOrtwFkQsAnCgpItY1kEbIJYNvV24CwI2ARhQcmWsSwCNkEsm3o7cBYEbIKwoGTLWBYBmyCWTb0dOAsCNkFYULJlLIuATRDLpt4OnAUBmyAsKNkylkXAJohlU28HzoKATRAWlGwZyyJgE8SyqbcDZ0HAJggLSraMZRGwCWLZ1NuBsyBgE4QFJVvGsgjYBLFs6u3AWRCwCcKCki1jWQRsglg29XbgLAjYBGFByZaxLAL/C5pk0FDKj/fOAAAAAElFTkSuQmCC;fontSize=18;rounded=0;labelBackgroundColor=none;strokeColor=#f47668;" parent="1" vertex="1">
          <mxGeometry x="387.5" y="74.15000000000009" width="64" height="64" as="geometry" />
        </mxCell>
        <mxCell id="LuIQuzxRRM_9D2CJ-Mg1-7" value="" style="shape=image;verticalLabelPosition=bottom;verticalAlign=top;imageAspect=0;aspect=fixed;image=data:image/png,iVBORw0KGgoAAAANSUhEUgAAAaUAAAB3CAMAAACUja8MAAABUFBMVEX///9pZWZmYmNjX2BguTJhXF1bVldeWVphXV6Gg4T29vbKyclwbG17eHn8/PzU09RTpjNQojPd3d1WqjJYrjKmpKVGkzPs7OxLmzNJlzNBizNDjzOin6BeuC+zsrLk8Pm41/DY6ffr9PvG3/OmzexZtyUuhBw1hCq/vr7d7Pi72fGt0e6TwuiTkZHl5ORDltjX5dWMsYmBfn+KveY7hDRvruF+tuT0+fK5uLhbo90oeSO4zLeYlpYvjtVRndt2wVSOvIOBxWNOswnr9ecvihEAbQC/3rSrxamd0YdBoQ5qX2lSS0yDh46gqK9dsDdDnR6Ju3u+zNhvqGNcl1UVh9NqrlTR2+SgxpitusfZ5djS6clsnmi/17pXm0guhxbG47pllmOQx3xZokTJ2cmq15iSuouQk4xkl0tobWJkjlBfgFOivqBcdlVPfUg9ejeHpYX9cv+1AAAUBklEQVR4nO1d+UPbRtq2JTSSJVsKDl4nqTGHOWSwTUvClc+QLRBaklLabbvt9ki73Xa3e///v32aGUlz6J2RZUzoFj0/JUiWRvNo3nneY0aVSokSJe4M7ijwwm631ep2Qy8Y+XfdnhISRmFn10a27TgmgWPZNnJqLW901y0rQdEOa5btmEY1A8N0kDkM23fdwnuPdreOHIAgjioLNQ5Lou4QYQNBYwggate767beU7gtWz+KBKJss1vKibcOd4zMSSmicFDLvetW3y/4raIcYZioe9cNv08IrSk4IuPJLOent4RRw56OIwx7t9R7bwNdBGoGwzQtGyHLiOAgZFsK9We8bt71E/z24TYsiCEL1cddb9SOdZzfbnrdYRUBltG+Wl2920f47SOwMyPEMFG9FYDyzfU6kQQXzrY6q0tLq6Uov010UYYju97VButGLYNj1hr3+/2l1ZKmW8RQlg0mGk4wywS1RLdbH62sRCxFNJWu021h15E56kwo2NpDIjnMiKSSpttFQ5xhDDQu0NOYJ/OjXq9X0nSb8CWS7EbB3FGzjknqxaNptaTpNiCSZNhh4Sv4y1s9fjCVEmLm2BVIsnaLDwR/eXmrpOlWMRSEA2oVv4K/vb1MB1NJ0y2hy0twAwXFrxCRtM0NpnhqKqMQM0TAO7OGOUW81F9bE2mKB9O4LF+ZFVxhJFWn0GYRSZSmLYGmlm1VZ9/ce4oGF7sz6tPMJWsDStMym5r6/Ssc4jOHM2/u/UTX4kfSNCQNIqxJNu8qjpejMi84C7S5Sckwp3FFB08pSxxNV2aq7K1S6M0AvL1D00z2g6dPBxxN0dS0FLxm1yxt3gwQctJBYZ0OLnQXGOw/FWnqR3885K9aJm9vDM6dtRTO7O8v31X/frC/z9O0tkL/PGSxDKM++1bfM7QYS0YDPuXgwfUnyt8P9ihLdGoa9NIDnLifIiZYgofLSQcEe7MHHz9U0zTYwywlg6nHCYVmemXTtmbf8HuFFjNM1iF4xsHCwsMH8wqaBkd7KU1Pl0Ux1zEpRcb40zKedyNwQ0kxexwsEpbmz/8AHCQkEZb297czGt4wTLt+9Wl/aWmpjOfdBJxDCyuxs/WYpUdvsjQNTo4oTXt7awAPXvXqUxIrmqCoKO94jhvnNn8tOtIf4fWS3dCb4VpJTojVoOMRSXMxS483ZJrWIpIIS3sDgCO/39tKYkVLecHxGrJ1IYrAQbu6hw7xMkWtq9eqZTFshU3wqoeKk/XPEGHUbSDbcuhiSdRQF1+1x8AdcMEjdLLHvBrQn8UkpSz9buMz4eDazhHF06XMD1dXtte2aRRiEpZa0ZB+rY7EY7tsjdU/J0LFcDQ3GNoGANOxUS37dnQRdC6u7B1qUzpeXVzthQsZYXXrWyZ4C8e2xtl3oZZe1IACBIQkxtI7mzxNa8cneCyd7Pfln632cPA1SQrGLGnHPw5/2OoeaNp6p4s+hqPW+36mzJB1peXIqkm9aMuwG8oB5VWzBafR1Q3IRnjqQvyIWakjOO0ADaWzU0wSx9ITjqbt452TCHsr0o+WlrEqpwHyeCytkISgsgsrN2VplDyG8gxXzVIEqy4OYzJXS+952u2KNLZbi2+BByhGWpttA8UJHlDlzZhF4ogJU48Wcmi/piTxLEU0xWNi+XgnwpHEUX+biHLi4LKxROSDdjDdjKVx3CHqqY2yZDo8TAslax0NUTlZpENE1K1kebENWZ1mTIqJGi2vORqNgrBTjUtJDTsz/ghLhtQeO5rS6C1MIXu0m74iFvCALyhJAkvPnv8fObYVkXR80hPOXxkQVZ6EIdaSMojbZolQgN92VewkPgVl/joKh3FPCqYEd6GdGQBtj1aGVu3sUjqPDiTL6PKjctRBiuQNZikr19zm4S69Bf+wnB2wgUd7X81SRJLIkd97SlU5G0ucySMTk05L34gl7JhbXt3QhHUpS9B74tN1QAZvLQlLkJZp0/UomRgNJcmwM2EBd4xAmmCWyC2GdNiPhXMpTEhAvcAW7zTC5eXl9fX5+fmbyOK9xCz1jo93tri2LO/t7CSuk8ASLx90E9NNWPLxTGwS6w0/eEXHUtQvVUyTw003SpbiGLLZkZpHOtZpQO9hk6o+6f1Rs5RQzn7QSb0lsIf8ytziesVPUXl3Y/M9fKD3+c5yetbq9tExFhJHR2wspRMTP5Z0Ju8mLB1G9Dhd2req9JiOpYpL+5Ed1bBUwUO2KoYladWIylNw66SXRQuqY4mWCrGj9XRasuEHwCxxiFnqfb6d/GVp7eSYyIiTk8TDhcbSym2yZMbt72qKLLQs0W7hZmYdSwE5KLwMZHZ31O4cybIau/yftCzR2CpyuaZTFaL4AcjSyiD+b38QU8SztJ+VD7fLUmjFJogyAXeuniXSzxzBOpYqhFG+qSSLaiq7PLJJxKQKAlTPksu/NUHqWimi4QlLFw8vvzirJCzRZ10Z7KQUyYNJ0A8RTX9c+WOEAF5OSHADlohqIF2KDbip8Gb0LBGPhF1fyxK+n6CIqXelU7DUnzO5v+hZIl568iSHqbeUFfQUlKWLy4cPHlwfpBYvsnn7x58fc4ikQ8QO9mUJLYmo83HTPWTHeK2O1E3PEn7V4rgJqbKBbXcOS/j6nMzVstSQWOriXswpBibn8KGRHJaw8U6CQeNUPKjaT1n6mOSXvkxZWiFcYDsWMZFbcsQqlEz1lh3Ts9TgBDh+BS3wJjkstW2BXy1L8lttamaMFFQAsP/nsMTr1dSnVU7MlKVT4i/9nhtLhZDaVVDuU0zNEhbBqTNLFDGYFp4dS/RK7N0kEbnc8htiUrkHLMBS6i2BkVYMkKWiGb20kEyUOZlzpmKpJvwQXwaMuU5i8Ri9OpawWOEfZKiNeQiX5NysCSxe/E6zOLFiylWw5Eez0s7R3v5gbXkrMnq5ua4hi1Qqz5mWJWxOuQM01AycN4F64Lpax1JVkmv43ExQPQs6u7CGTqAeqOlmE4Yy5K+0eL39z3npsI8pi1QDmJJllRWZQFqKaVnCD29xrZf7MEEOSw1DeFVzYg98S8goVMh/HsTNYudNoMTj7hgxIQ6Lrzj2oJiXenu8P5skbSMdPhhsY8YileeSbjlEFt7p1TAMpJQaU7JEHodP/hF7BNifHK/WFmcNJUsuWcTPkxJaUgsUcEXHWc8SiQnFkrOZsqQQ4kkcL462cnE8Cn9rj8SGTlKOWGVeWucauUuffvXV1dX4o1rdUr5zOSyNFCzhYSoqR8VcrmXJNyQFpWBp1MJpPjHLgVuQq/AwiM1Km5ofIUqGNnNqbTj6pYmJpw+4vIctHvNnWf1kHCHaShcz6eKtmCVj2FJhbIAs+ZaotyrKXtOx5JJAGe/xkKm+1RXQqtGtfKSM4dDQTOs8yFSTygcdS3TFXxL3YxHx6VmqkID4yUk6lLha5MzSQE2MiIa6TBXklz3GoZWJT1M6Ms+jYckjyT2Hl7mkY6A2VKtyHUPD0PqBDGOT19Iallo0JO5xZ86ApQoOi+8dHYEsbYksKZ+BX/ahAMCSAczcYxNyzOAsIN6Eu04siinMZep0tyHXshDtny/x4kGey9Ko5RCtxfbsDPJYenGaqXt4svESYKlCiOJZEgweW2WrfIapWMK6O/OoI8nrpHCpqZfsaM2Is+S2eBVNUYJh2cImwjdgqVqX27Nr0f3RDMSuGOSph4ODgzmxhujJxsGBUqctbe8naYvpWHJsFRyQJTg7W4NmirjuATRiVVNebEAtnlCU4NgoqZIwealfyOKxMe5pjKph17mHytV4EdalsbSh92EjovYVLC3lsuSE7RGMtucALJE4a1Z1N8VoD4W6hsi0rZb8UKDG89vNcEjelypic+HQyEyNMMSXR1lDhEv4BKOa6y9FLTuVWTrIa01/GY8mWDzoWSrqL+EwJOTB4iHmSK+3kqV6B7irxqsNDeLLpLxg10YT+WLAN2OmUcWS0ehKI4a1XGlYzzIs/WmCBvWXaT49Ix5myhJN2gAnkx4wxb/RZ7U4OGRUOCAX2pg42WQmlWAkjKqOqYgNYE9IK70cvj1ExwIOeX4c790MS3/JbxBGf4tmaqUtOpTnT8ESsTVgaIsQIh4BlHhIpyrIhGtZqtRIroJrmWbGSEFEABM1gMajdS9Z3ceioCov+Gt5XtqEFR6E/ta2zNIsc7XtuLgqC5o7FUcZ5C+RAChorfQskZql1NTaurecgVhGNlIgJU7z7hklworEVaW732dY+iC3PQz+Uo+VIOvrJouzxOqfYIgzFujV0nIgoIf1LNHMfSLXSMRfHeznL8lpQYiltlThxd2NQhUGvThdl1gqmAWMiOK2jpohS/rC74yJB1miFVrAsvwcljw+pEuSJUr5lSCUorSgV0sL8SyJi5C5taoOOvsp4ukGLOF7X630c7dhK8xSl1hxXURJeCnhCBGNmGXzDjkskbkoHT6wLyehKhlXOPbQcTKvF+8w6fyyi7l1jqVvcpqTxdhGu1/1V/W7sBVmiViQcQdGiwRv+U5QxPFaFtjFhViilSd6x7YrJdRVEaIGUNnHkrWqlPD3xD36+v3Lh0mE6DP4RA0MElb5KFz1Z8hSCLm5DFRRcXEvVbSVbLCZKbXMYYnYoPTmPi0d1y1EJE6D0McKllwLsMEseqaYmOZOP8R1eJWzTy6vCUvPNjWNUbeQEKVbR1eUpaw+EIGFAR9zVbHk0zCe5C/msDQURyqpmtRtskWrJgUeVdHW2AYLlLNctwM/8fri+un7X+N/HXz56Byz9FzZFgW6rBZdE5QsyJIn2BwAnpR5UmYuRpCw0rNEtBhv4mjapaFPy4haUpm56GYpZ/FWhceEJd7i6cd0F6Jvv3uz+WSj6JZfrBZdVx1QkKV6biSabEHPOkadX6K7MDnCY+lZasgJE6oVzTrcNbSaX5pT1PmlWta55dY+g7c4+/B0fXFucf3ySzJBvfvNxsvcQJ6IEaeYNacVYymAAqoiSN0uO0WTBRxmO1HLUi1bJkntlGFBDxDQFKa0oZ2aJT/r3LIiLOWbeTF3uriwcH35CYngHbw3SSCPAzOqWge9GEtgckIECRAws6TLqFPnlo9ra1jyDBOwC/FSQDSUfxSvGTPkig9Nrja2wZIgjE0eJJjOqMR7cboQKfHr774Fr6oH24pKG+wqxBKc6JNAXo805qpdZSamsCuqFZt+2+sYtMOyKzBjjSRuNRDE60Gz2xXr6h5Coe6hIiywh/ro+0Ti/fnyev7RozfvfFB0O5CQ2zBMd14hloaT7AZLS6tC/n+qGiJPFlaEikxOEqXLzlE2yNt0kpXOdq0bBkHgdWt2vLOAlV0kqK0hogHGuvQHennAZbpYZxJv/jpS4hsb7xWbl9ikpE9oFmGpDRegyBjz9Y36eryWFD/QLfPHS5whq+DXku/0GXjfFCv9orkBfXdUX49Xl5aQNjn9kO2kD095iffjOVbihUJE/NYs2vrPIiyRHG1+4m3EE+Pn17Zyh6vqKgzDhhd14HbVgV05TFSDHjyntpXIce4wE8rAYEok3vpPVOL94c1mMZZYq3MqC7uoqql8jbSAUbWTd6v92shbL0RQsyJ1nPynYVZNNbOuZVQtdjhEYHTQsZAz1MVVvV3xk/OmhRSb3rvRwENqVyKQDrOIK+zLY4k3t7Bw+QnZEvTgvZc/aFopg9swTDNQCDpmXacuRg0uuuVVjUmqdvyhxT7K6tacmkZvtHetITfSAig4GE03ufXg7XBoItu2LCuax+pjTzl6g7pWpHp1cYbg0jSmfC65B5Z4Cw8eXH9BJJ4/eRpwgr33fpNwm4HnecFoll+fYss2s7UwnMR7MP/o/HFBicdlGfOGUokccINJzhOeMol3jaOtxSQeJx3u01C6HfDbiYsrrQ8kiff4nSebGz9Mel1h295yKN0UTOZJUT5flnjnm0+eTRzIa0ws8EpMgCb30kslLP7FHN7HcPHyz0Tinf28sfl8wkDemNtMfoK1ciXyMOSnJlmORxIPb697GUu8D55PVpHHf0DBmeLzdSVk+PwnATkFcZFKvIWH8/PXj6jEm8jiefxnaErpMBPwfcpFyH465SQejra++XnCSUn4gF35LZIZYcyXIKarmT5cjyTei+/Jv7/9kUrxbyaZlgSSlHGvEkVR58NPSSaIrAXkJR4u9XqZH8gThuZECxJKTAT+c2aphEj2bY0kHp2gfn6z+exZbkXeoXCtqb6NVgJGINJEVNliuq524fILMkH5H2w+z6vIG4tXKj+EOkt0hc61a368EDCuE39w/eiCSLy//KC9jNsQvyFdfrlxtugI28WbZlA55Vian58/P8+XeJ6YCNOkUEpMh6GYSEZ/XRR3Enj0+PEbvcRzh+JKCLt0Z2cPiSbj1d/WFwWWfvfO5sZn6gTToW2WJN0+xtI3Ml798iP3zZh4W46XiuHkVaWiDsUHIUrcFB157darX77DH2DiWYIDeV6mNAMqnSkxExzKNFVfVf/+cBHH8TQstbumJZfPlOruFhFkq5Vevfrl7/PRaEpYkpbWuuEuyqxxNczST7pNtOtAzWBE1D/+9piuYHr+T3ayG7QaKDOMqlUL+ORQiZkiMzklTFV/+dc//v3v//zXbbdHzSBs1arINoECQ7Cas8SMEZjaVfomQrjkzIEIwnC0lXUlZoYxUtfg5kD1RbYSs0ezof68oJ6j3bLG4S0iclILjyfDlj8PWeK2EUJf9tRzVPpIdwCvkfWEVDBRrRxHd4RRx7InIMq0zVY5H90lgrEFekWpobNsA9qwscRbRhOvEY38I4krwzAt5NQOy2DQrwYjr1WrI8QtBkb1YdcrGfoVwm03mwFGs11G6kqUKPG/gv8Hh5dxj9c7bL4AAAAASUVORK5CYII=;fontSize=18;rounded=0;labelBackgroundColor=none;strokeColor=#f47668;" parent="1" vertex="1">
          <mxGeometry x="543" y="235" width="178" height="50.31" as="geometry" />
        </mxCell>
        <mxCell id="LuIQuzxRRM_9D2CJ-Mg1-8" style="edgeStyle=none;rounded=0;orthogonalLoop=1;jettySize=auto;html=1;entryX=0.5;entryY=0;entryDx=0;entryDy=0;fontSize=25;labelBackgroundColor=none;fontColor=default;strokeColor=#f47668;strokeWidth=5;" parent="1" edge="1">
          <mxGeometry relative="1" as="geometry">
            <mxPoint x="598" y="170" as="sourcePoint" />
            <mxPoint x="598" y="228" as="targetPoint" />
            <Array as="points" />
          </mxGeometry>
        </mxCell>
        <mxCell id="LuIQuzxRRM_9D2CJ-Mg1-10" style="edgeStyle=none;rounded=0;orthogonalLoop=1;jettySize=auto;html=1;entryX=0;entryY=0.5;entryDx=0;entryDy=0;fontSize=22;labelBackgroundColor=none;fontColor=default;fontStyle=1;endSize=6;startSize=0;strokeWidth=5;strokeColor=#f47668;" parent="1" edge="1">
          <mxGeometry relative="1" as="geometry">
            <mxPoint x="462.5" y="260" as="sourcePoint" />
            <mxPoint x="537" y="260.155" as="targetPoint" />
            <Array as="points">
              <mxPoint x="500.5" y="260" />
            </Array>
          </mxGeometry>
        </mxCell>
        <mxCell id="LuIQuzxRRM_9D2CJ-Mg1-11" value="" style="shape=image;verticalLabelPosition=bottom;verticalAlign=top;imageAspect=0;aspect=fixed;image=data:image/png,iVBORw0KGgoAAAANSUhEUgAAAO4AAADICAYAAADvG90JAAAAAXNSR0IArs4c6QAAIABJREFUeF7tfQt4VMeV5l/3dqtbbwkJxBth/DYP4WCDsDPGdtZxYoTlIBzHSWwYx/kymc1nvJMvu5t8O8E72cxmnN3gzST5ZpKsIbPOYxCxQNieZOJEcmyEMTbyGzAP8QYhQC9QS33vrf3q9oNWq/veuo/uvi3VtfUhdVfVPXWq/jqnTp06h0A8ec2B+oYmmukOEIKndm5v3pDp94j2+TlA+IuKkl7kgACuF0cl8zQJ4Gaexxl9gwBuRtnr2cYFcD07NHyEJQJ38LYGvkocpUpea42XEqoyB8OyXEQAN8sMd/t1ycAdWL7KlVdMe/pxAVxXOJmZRgRwM8PXrLUqgJs1VnvqRQK4nhoO68QI4Frn2XioIYCb56MogJvnA2iTfAFcm4zzSjUBXK+MRHbpEMDNLr9df5sArusszYsGBXDzYpjSEymAm+cDaJN8AVybjPNKNQFcr4xEdukQwM0uv11/mwCu6yzNiwYFcPNimISqnOfD5Dr5AriuszS7DQqJm11+e+VtArheGQmbdAjg2mRcnlcTwM3zARTAzfMBtEm+AK5NxnmlmgCuV0Yiu3QI4GaX366/TQDXdZbmRYMCuHkxTMKqnOfD5Dr5AriuszS7DQqJm11+e+VtArgpRqJ+5eqNIGSRVwbJhI4Vse9ZBAxxkd7eqK1obKxoa2nptVc7+7UEcFMBt6GpDcAd2R8Ob75xvIeuqW9oWg/QJ4gqPbDzxS2d3hyF0VQJ4Argms7T8QzcZQ1r1hLQZ6NM6KUgT+5q3bLJlCk5LiCAawLc/qm1rg5R2Zkuvb2RWde51m7B8f16W27SGqOTtTtegbv802vqqEz3jhkIStZ37NjyjGsDlIGGBHA5gPv+Jx91hfU3/W4zYoA4/9mvY2S2c/AWHNuPqt98X6fvRN0dOL4ovuV1RHP95qfi9ccjcNmedliV9wIk5cpMQTftat26zhETM1hZAFcAN+X0Gu/ArW9oYupwfEXuWdaI6l0to3jhZfAK4ArgTjjgLlvZtIIQ/CnW8ZGSKvQ9+h1o+19HzR9Gb2+9Cl4BXAHcCQfc+oYmBtr4nuLUI9+Fv7RS54N67ANMbf2h5yWvAK4A7oQC7rLGh2qJqhyJdfrcHQ8D8z8+igf5AF4BXAHcCQXcqHPNE7FOn3zkuyiISttERqQGL1nnlaMiAVwB3IkF3IbVR2KW5FD1LPR/9ptIBwJ513ZMevOlUfwhKlnsBScNAVwB3AkD3ORz23N3fA6Y/xeGhzbF255B0Yl9CWVoV0BWF+faPVIAVwB3wgA34tqIH8TV5Ic3oKCyxhC4qqaietM34RvqTyy3uaO1eW0Gj2lNmxbAFcCdSMBlB7X3xzp8+is/hE/2mYJkpLcbM5779mhLM8Wdu3Y0M5/2nDwCuAK4Ewi4V/a3g7ULMHTfV7lBp5w+hGm/jXio6Q9BZ8f25sXcDbhcUABXAHcCAbeJxjrb/RcPgSywdgFM2vMiql6/kvCbIndWZgFcAdwJAdxkb6mTn/tbFEyaZkkOhocGMP3/fiOhDu3qaN0611IjLhUWwBXAnZDAPfXY9+EPFluH0buvYPIrv4rXozna6wrgCuBOCOAmW5RPf/kZ+PwFloEbHr6M6T/7m8R62zpamxstN+SwggCuAO6EAO7yVU0bKEXcNHzmKz+EzGFRTsWcgrZfofz9V+JfBWSlMtvnugK4ArgTErhnv/pjSMTe9FdOHcS05//XFXU5B0Yqe5Q7FPNuVq9vWGPNNMjzckI3gqKOFWVRJSb6RXp2tY1AcjWcC1HRl03XwWSJ2/3XP0nr6mg2RRRlBNP+Ke7uzIpn3SFjHAD3ionfjOF2vnczHAx7fz6GrrHDN4467R2tze6E6+B42RhV+a/+EbIkc9RMXaTwhR+jpOvdyJc5ONMVwLU9dKKiQw5kFbj1DasbAfJ8jOZTj2+EvyBguwuk82VUv9Ycr9/R2hzHkq4FUtRR0ApCrtz7BWgtQCoAJEaS7AQlXQz8ATn8Nu9eWQDX9tCJig45kFXgJp/jnnr07+EvYRiy9ygnDmDatrjbM/TtBCF1sS2WvVYj0hsa2UR98rZdLb+ORBZM8Ywr4LJgaX017kRlZIHd2MOiMQ4sb7A9DokVS3e2IhaR0a19M2s/RisLiD4803kAOtZmLAAd2yocX+SOGWHW2+3xrQKArAI3EhzOdzEucT/7LfirZ9oe15HBXszY/F9t1+erSLsowYZd27dGJmPCM+6A63aUQwbc8w99nY/PJqWqfv39UcB1Y//M9syJwHU7k0GmjHPZBi4bmsR0LWcavgZ59o22xzU8cBHTf/FNrvqa7EOotApKoGhU+cDgBQQu9XG0MRbAArhp2BaLciiAmxmreo6AG89QMTDvYwjd+yUO0KQuEr54BtN/eSWEbaxU74zrMFRahVBZNYbKqhAqnYxhA5WcaCoCAxdR3HsGlSc+RGn3UQQHL6Shi3ZRStaxW0kCuAK4KTkw7enH9c/HlcSN5ISKn+PwXutLxaDw2S5Mb/4ewjOuRb8vgPNz5uPCrBtBHViqY+8pPXcMNR/txuRDb6VbWDYL4ArgThjgjjFQrfkm/FNm2ZK6yvF9CIeH0V0yCeFgia02zCqVnz6Iqftfx6Tj748qym4lCeAK4E4Y4Or73JVNvSAoZ7/3LH8AdPE9ZvhJ+X3P8GX0Dg/bqmulUlXXO7j2z79OrKIb9QRwBXAnFnCTMhjYuSV0cTiE88NDVvBnq6xvZAgLX/gRmBEr9sRuIwngCuBOKOCOCRh324NA3Z3cwBoIh3F2aJC7vJOCtW/swLR9OxObiN9EEsAVwJ1QwNXV5aT8xyfXfQ8FRWWmGAupKk5eGmDOFqZlnRaoOvourk249wuKvoBPqY15VgngCuBOQOCOdn88f+tKaLfcZ4q1roFeKDQHoI1Q9mRHa/PGGJECuAK4Ew64qaTu6fvXw2fgdXbi0gBCqmIKbqcFxkjaSINjLusL4ArgTkjg6jmEFKUzZmFmTDjV9F/gr5kzhh9nLg9iUAk7xaRp/clH9uLqV7eMKkdB3w7K6orkywcCuAK4ExK4utRNcshgnyUHkWNHPuzoJ9PP7L2/w4z32rlAywoJ4ArgTjjgRh0xWBibMfeBz97zGKRrlug8GVIUnLw8kFHMBgcuoHbPC7q7Y+LDJK2kSmvTBRsQwBXAnTDAXd7QdD8FWBqSMYBlvssDdz4Mf/QiwLCq4vilUWlHXAVwsP88phzcgymH34J/aMzisC0gK2uN7uYK4Argjmvgsr0sFOVRQujaWJa+5A6fXvUEfLOuj38c1jQcHeS5tWMdy6U9x1B9uBNTDr0FSRkZ0wAheGrn9uYNZi0L4ArgjjvgMicLTaL3EwmNRhfbzy9dhdBNH0dB4RVfY41SHB7oNcONpe8nHf8AlSf2oay7C8H+nnR12ynFBt58RAK4Arh5DVwGUsh0jkZRFw0Tw4L8pQ1tMVw1AxeX3Adt1vXwBwrH9P1gf/yu/ZjvZrzfDtUXgOpnP0Eo/rGhb2Q1jKKLZ1DUeyb671kzkB+lIBusJszOCXBj6otZj3i+JwRxtUJEwMinCBj63VL+yJGE1hKQxPAmhgBNnjt91y/HpQV/AWnyLMhESjm1DvVfTOsTNXX/LszdvZ1nSvKWaacgm6wCNtZ4boC7smkFIfgTbw9FOcEBOxzou/E2DNUuhDZlDvzF+oWgtM+RgV6oBl5RNz//NAKD6aUxJ33svKeFyr4Wo3hSPG3lBLjJoTJ5CBVlBAfMOHB5+rUYvO5WhKdfDbl8clrJmtwOM0Qxg1S6p+LUAdzwMr9ywNphxzkEpJcQtFFKOztat7LcvK49AriusVI0lEkOjJRVIVw+Rf9RyiZBLa6EVlQOWlgCGiiCXFgKWbYeJ/n4YD+GNdWQ9Bv+uBkVJ/fHy7CL7KA0dQRGn6/LqTTl4WNOgJvoscICab3+8H83pPXqskqevogyggOWOMCcK5iThdFT0nMcC176SWKRrEanTEdbboCbcK2KWeh2PxTPxZSSzqtKK2znebE0kqLwhOEAj6RlzLjq9W2oOfB6Al/oA26rvXaYnnPghoPF2LPmW4a0zy2tgGwzQZMdpog645cDlFIcG+xHmKbf08Z6z85cF2/734nMONrR2uxO4G6HLM45cEeKyvHm6v9s2I05JWXwuxA9zyGvRPU854CiaTh+aQAqB2hZV2d3/h4z3mURXSMP29vaPb5xm3U5B26odBL2NhoHHJ9dXIYCG4YHt5kl2stfDjDf4xOXB8AkLs9TMDSABS/8CAVDUX9lir6OHc32c5bwvNRCmZwDd6hiMjobnjQkeWZJGYJC4loYVlE0kQNDqqKHnLHyzHrnZcx8++V4FV4fYivvcFLWNnCXrWz69q4dzWNDuXNQkxjz59KkaXjnvq8Z1ppRXIpCm9nDOcjxRBGiKqDjvI+5YDS7AM8uwlt5xkhbAG5nnV++sul7O3c0G+8RDYh2BFxC6CqJ+Bte2/7rU1YYkwjcgerZeO9TXzGsPqWwGGX+AiuvyKuycl8PSl79VwwufwBq5TRP0l7S9hyU6VcjdO1ST9KXiqi+kWGcC1m/BJ8sbd1MXL30U58vk3wjmwHa1dHabKxqZg64zE+YdoFKn+3YsWU374gmAre/Zi7evyeS7iLdMykQxKQUDuHJ5X09xyH3ncPwvJt5Scl5OV/3MVRu+XudDrWiBoO3rcZI7YKc0xUjQOo/j/Lf/xy+s0eglE/B4J2f19NueP2JxT4u7OsGu6x+ceaVa3tGtKeStlT2zXXDqeK2VauXaBr5KQjqojeBbGmsjH7bEre+oekjAFdHmdCvgf7l661bt/IMaCJwh8ono3OV8cJT6i9ATWFx2qaJMoLC9/6Mwnf+CGngAvrvfdzz4JWGBhE49CZK2kdFqQclEi7d3oShhfyxfnl4bqdMQde7KG3/FaQkH91Lt6zE8LVL9IXGaw8zPTEp2z8yDAZaFuKUAffstbfixMK7oBSMvRGU2IdM7W2XNqxeLYEwT47JccwogVmvv/Scrdv6toC7/L6mh6iEXyUPGgVhFwd+MSuIf9myZUtaP7JEzyklUIg3HvxvhuPP9rdsn5v8kNAgggfeQHBfB3znjo/6emjRnbi88G5oZVWemlv+kwcQOPiWDloG3nTPyJybELr+NgxfvTjr9PuPf4jggd0I7tuV/t2SD6FrlmD42lsw4iBdpZudC6sqzg0PYWgkpAcSZz8FCWksmT2lZ+5i9MxZgJEUlw5SWZITYxlbpXXNmjXy8RC+COARAjpmJXYidS0Dt76hiZ3dPG3cCfoeqPQLTfL94vXtvxpzITH5ksGuz/+dYZYznyShtuTK7Q7f+ZMI7t+NwIHXIRnkF9UKSzF8/TIMX30zwlNydG6uKvB3H9VVzUDXu2DAtfIwh/nQDcsRur7eSjVbZYMH9yCwbxcKjo5OMmXWGKNxZO4iKNWzEJ46F9SXfXvEZUXB4OnDKD32HqqOfYDiCyfTks2k7vnaBfpPX828eDm3pO3SVZ+rkTTlERDtEYDMN+KfXfByA/e2+5o+rkrkCQK62mwgE75nloEPKfAhIfiAUnSqKtnr99GvUIq4nyNzwGCOGKkeWRlB8flTmDPUB1/PMfjOnQDby1p9mFQIT78Gw1ctyqgBiIyE4D9zGL4zR+A/e1j/nX3m9AlPmQNlSi3UyTMRrpkLpWqG0yYh9/foC4r/zBH4zhzWFxinD7OMK1NmQ6meDWX6PISnzoNakjlfc+lyP7SP3oS/621UnLhyEYC3H8MllbhcORUjwVJUd70DORwfq6MBWakzivvE3rH8gQemQPHNp1RbQAiZTykWUIL5BEi/t0sijoJslTX6zGsvNP+Zl25D4C6854vFRQWhlSB0JQG+wNuoeTk6DJBI+AACXJx5Iy6XT9Fj8BSEBuAPXYJ/aFAPosUSH7n9KJOmQ51UA62oAlpxObSSCv13Nfo79QcNXyld7oPcdx5y/zlIfT2QB3p0o5jcfx7SJXfDnqQjhAZLEJ4yG+Gaq0CLSsC0Cy1YAq2oFDRYCq2wBFLoEsjl/si/oQHIQ+zfQfh6TsB3tgvywHm3WZuyPS1QBK28GmppNdTyydDKqqGUVUErmwy1vNqYBlXRtSr5Uh+kSxfH/G5Vg7HQ4W5QHATANMazFDhDgKkA2Ma+BiA1IJT97lqOTULxnAa8RMLkpY7fbUmX3ToGm7FdqW9oWgkg9uN8abfALVFUcGDCc4DiAgFeMgIxWbpq9UKZSoso6EIA7GdRdFWZ8PwTDBAc8AgH9lKgE8BeWUOnv4js5d7jut2BxATDhz52H7qLTRwPJAlyGds25Ixkt1kg2rPBAaqo0C4PAQYRK6w0WzZ0ATe98dvEKmPy9FhpL1tlc4aCxLNcdji+76rbTfssFRWCFPhNy4kC45MDdHgE2pBzQ1+MO7IE3PzqL+CLxTdOSmXpZS7mDrgJeVv0y/QrvgQMDxvyioGWgVc8E4wDGoUWCoGOuJt4a8aZDzH7wGsJzPTGJXme0c0ZcJc1rFlLQJ+NEfnmXY9jRDG5csXU5dJiQFyq5xnbcVGGhhVol0MA5x1a3k4XKZewaOcoH6K8UJFj/csdcFmaQ1U5EiPkwJJVOF80xZTvUnERiN9nWk4UyH8OMLWYqcduPxJLb7D7NwiEop5rFH3U56tzwx/ZbVrTtZcz4DKCljWs7iQgzIqN7jmLcGjOLab9JoECSIXG56ymjYgCnuYAM0BRphorxtEX7XZizrG9mN71ZmL1Udne7babzXo5BW6iz7K+z719HWCW9ZtE1WUpp6Rnc4wm1Lt0A1RoGOCMVGGVOZUDZ3H93tbEap6I2mi1Hzmd/fUNqxsB8nx8n3vHX2KEpk4PkdgxEgxACo7N22K186K8dzhAVRV0aBjUJFyqE4oD2jBufvVfrjSRR1bk5H7nFLgrGhsrhlVfPK/DwY814Fwxx1UxIXWdzF+P1WUW4xFQdqLAFw7KFv3MnrngrW0oHjgXr08p7uTNjmfrpRmslFPgsn7VNzSx1Az3s9/1u7m3Pmh6LMTKCqmbwVmRpaaZdKVDI6Bm2yMX6Jl56l3MOpgYHxl5t68dpXW6wBNHTSQfC71z+xdwSeIwPuWR1F1SXYTyAhmdF4ZwPmQcOd8RM/OlMmVSdjgjFuNULJjUfwrXdb6Y+FVeHf2k6lPOJa4udVc29YJAv9fHLjl/dNVyQDW3KHpd6n75+sn46xtHH3H92/E+/OTDc+gaNHY2yRcMWqVTP5dlxieO8bXadqryFZfO4YY3tyV+xXVdz413Z7INjwB39UYQ8kSso3s+8WWER8wjzcPDUvfppbNwz4wybG/Zjl07O3CuuxtrH1uH2z5+Oy4pGta8fBAnL7nrCZTJieK4bU2DNsz2su6fy6ajrTTUi/m7m698TdFHNLJi54tbmMN+Xj+eAC7LKk5lujfGya6F/wGnK+ZwMdaLbpC31ZTgx7fNwff/5z9g/77I5e6amhp853vfjffp+a5ebHgrfZQGrs7nSSE6wo54Rly7GMDT7TEWZI9lIuDpg1EZTwCXEZjojDFSWIa3bv9ixNLI8UjBIEgw++FS0pH2P5bMwOwLR/HDjf9nVJGfbvq5/jeTwqsaV+HWbR9iWOXQLDh44MUiDLDMvzhTjhTp+syO+Je2/2zU115KH+LGWHkIuKN9lz9Y/hD6fPzBBaSSQhCfN24OvXjvtXj/lT9iy6//dcwYVVdXYcasWfiPT3wNj71yBHt6rMf9dWPgM9kG28eyRTfbgI31qf6V0aAFpc907Ni6PpN9znbbngEu63h9QxNLFqzryKGSSehc+iDYJOB9pLISEMncgYO3PbvlfnnnXAx8+DZ+/s9JEyja4LLl9Xjsy1/Cqt9/hKOD2dvz2e0Pbz39eIedyWbQicKQFkJQ3/7T5CKbO1qb1/L2IV/KeQq4yUdDhxfeg7MVs/l5SQjkcialc9utR66pwoNlYTz9vX/A0OWxEvWxLz+OZcuXYdFvrUVT5GdEdkvqvsVRtTi7b77yNrZgL2v75wkBWtbJ3M7wFKOcKHXZ129yukHGm5LlyNW/HD4BieAPn74Ohz94F7974d9w8CMWOx6onFSJe+/7FO66+258840TeOF4Xw6pdP7qCGDDOmhz+UgSwdK20ZKWgr4dlNUVZlEac0m3k3d7ELij/Ze7Z96EQ/OWW3M6l9lFBP79sRMGpqt7x7RSbLh5OiYFfOju7kZoKISp06aioKAAP9vfgx++PybcdCbIyEibXgEs65yPUNzSHjH6xZ7xDlpPSlxGVGJYG/b3B7d8Bn2Fk6xNQgJIJcUgmc6rq1H4NVXPu6qwdyXtsZvmVuLu6WUo9kl4o+cydhzrxZEBPmu5tQ5nvrQuXZnhKeyN8+cCLYyPvbp5woHWs8Bdxi7ZK0pnzJuKEbp7xeNQNete6FJhACTg3k0idotF0igKQ5cwbf9rqDq1Lz5x9q94FH0eS3niGM6URtThcPaPdYxoLwpfwqKOMVlwxqUhKhUfPKcqx4isb2hi5vsfxP7unjkfh65aZmsesjNedtZr6dE0XYpKmgafGkZx33lUd+1F6cWT8KcJ0n5k2WdwLlepTix1zrywfs2OgZXFebKxYJq/wX6JFHdqWWMTBrSelbixIU10ytBV5luboLH7WYToWe2oxIKQsN8JKGW6MYn/zexu7LtIWQISDOo5bdin7GE12f+EarqFzjdyGYHLAyi6eArlJ/ehgGVTCIf0782enhuW49ycRRjwF3rQ3GdG/ejvY6qw24HZrFGRpjQBZpz+ALMP7EwuMKFA633gplCZXZkADhuZtOTjWLLiLiyaXoW954fw3Xfz19Cks0JXhxVQJbKH9eIjQ8O8/e2oOntoFHmE4Kmd25s3eJHmTNLkWVX5iso82sqcSWaka3vxZz6HhYsW4ZrqMkwuLAA7fog9I4qKW7Zf2efmgj6779RVYd3YpFiz2tt9oc16LCLjjXuehz8xeRoL8EbI+l2tWzbZbDavq3keuIy7ibGp2N+1V82FElahqAo0VYGqqFA0FZqqQmU/7G818jfbpxo9U2bMwqSb61Ezew6mTqpEdWkhqoJ+/f5sod8HP4uabfI0HzqHv3u726yYJ77XvZsYWJl3k9f9pImE6r7juKbzpWTeHSUqaRwPt3zsToq8AK4O3oamNgB3xDp662fXonGpYepRU54QQlAYCCAYDEB24Co5rCi468WPMKiY74dNicpAgYihKSpZs3QP1mk32Pls7aFdmHxijHfZtoCsrB2vjhW8fMsb4LL4VCFVbouFc2UdXLrmC7i/vo63r2nLMQAHAwEECvzw++zFbP73Y+fx9T1nHNPiSgMahQ5WBlImYTMU5tQVWlM0wu7Rsnw+yYbBibqfTcXnvAEuI14PLqf4uhLPd+ffsxIP37vCtTnk8/lQ4JN1DycrINY0ii+9cgRvXnA/ny9P53QVmKm/zA2RAdb6kTfPazJahu1Kpp94BzMP7h79Hoo+ELq2o3Uri08mHi/6KpuNin7pXqJtieCdt2QZHnu4yayq5e9lSYbf74PPJ8Mvy/D5/YZGnGMDITT8+2irp+WX8lRgJ1laVJqGY0DNQ6Qm9LVkZAA3vLU9VSLzdir71uZTlgGeIXRaJq8kbqyzqcBbPXUa/tM3/sYpPwzr6+e9usHKB1mW9CuEbG/Mfpi6zZ7/d6AbT793JQSoI4JiAFU1UGZIYk4hTJq6lGLSEW0uVWZ72WmnP8DMAx0ppCw2dLQ2b3TpVeOqmbwELhuBVOANFhbi4W98C1eXW/SScjikBEQHMpPQ/QrFuvbDODsUDXbHOMxAzQRi1HlEfx2zdkct3pQBUf/7yuf6Z+MIoMksZqyo7D2F694eFX0xVkwYoEzmZN4CNx142ed3ffXr+MTVUx3C0X71F7v68HTnafsNjPOaZZfPY957LyMY6k8hZcVelmf48xq4rIOprM3s82Vr/wqrFs7j4UFGymza14PN+3oy0na+Nlo80o/aD19FWd+pVF3YHJCV9RP9mId3bPMeuDHwDqs+5kGjZ0SIPXM//SAabluMqYW5iUUlwBsZicLwJcw8vAfVZyMBBZKedkqxIV9TgfACze1y4wK4MaYke1jpk2b6HCxf/RDunjvZbd5xtfe3u0/iz6cGuMqOt0IloT7MPLwblT1HU3XtKKVYKwBrb9THFXB1FXll0woCtCQeF7HPr/5kI+77+FLUFGVf+j756jF0jsNojqmmHJEIyge6MWf/qygaPD+2yAT3MbYH07G1xh1wE1Rndlgfd5Fkn1dMqsbNaz6PT1w3yy3+cbfznT2n8PKJJGMMd23vF2THOhV9pzD3vT/Cp6SI8MGyCEjYWCApG8U+1vl4jkvgxlVndhmfYkOy9J107U1YePe9uOeaac45aKGFn37QjV8euGChhreLsktSJUO9mHLifUw+9WE6Yo9SkA0T9RZPpkZwXAM3QfqOMVyx76ZcdQ3m33MfPnHtzEzxd0y7Lx7tw4/ePYvLHr2QwMOIQmUIVd2HMOPwG5CYB1fqpx2gG4WbIg9HrZcZ98CNsUTf+xIwAI9JSjRj1kxc88lGLJk3U4/KmOnnvfND+Mf3zmL/xVCmX+VK+0QCCkcuo/zCcUzr6kQgZGhs20YpNgqjkyusT9vIhAFuHMANeqoTFjFhDICZ59Xsuz6N+TfeiCXT9KyfGXv6RlT803vdeOmYN2Mr+6CiZPA8qs4eRPXp/UaSFSwcKgHZFJCVTWL/mrEpM6rhCQdcHgCzMlNnz8bsO+7FzVfPwexS96JEJg9r28l+PHfgAg725Vb6yhJB4fAAys8fw5Tj7yM4ZLqgHAWlLdTn3yguAGQHrIlvmbDATQIwyy0zygKdyKSqmxajcuEtqJ1Wg+srizC92N0jpSFVw3P7L+C5A9nxtGKXIwLKMIoHulHZ04XqU/u5guJBv15Dkg/WAAAR9ElEQVSHFoC2iL1r9sEqgJuC59E98FpQNCZboZOL++YtwJT5daidMR3zqkswqySAEp95iBuzof7wYgi/PXwBfzju3rGRRCgKlGEUXe5Fad8ZVLMIlsODZqTEv2dqsERICxTSMpFDxXAzLEsFJ7zETeZzxPfZ30hAG5NdKNONSShYBjLzKpTNmovqKTWoqSzHjLJCzCwpwKwS63l7Xz8ziN8cvIC96Zw22JVC/T+qS0pZU+BTR1AwPITgpYso7u9G6cXTOkBl1WLWgYhUbaMgLUE53CL2rFlCosXXCOAaMCwBxCt4JHGqpkKF5RiZMQ++ohIECotQwELkBAMIsFhXAT+C/gCCBZGgdETTILE4z5qqA5IdtezZfwTdPT2Qw8MoCA0iMNQP/xCTmO5cnNcNSxRtlEidkopOIVUtIihHxQVwLTCeqdOShBWUggG5zkylttB0VopGrb9dhKBT09AmjmyywvaMvEQA1wFb2WV+TUYdoVodCKnzCJiZR38XKO0kEullAIXP1yUsvw4G2oNVBXAzMChMMrNmmXRm/1ImnYEK/XfQisRIlUavj0rI3qQyTGJ2sc80ShhA9d+DPqVT7EczMJgebVIA16MDI8gSHDDigACumB+CA3nIAQHcPBw0QbLggACumAOCA3nIAQHcPBw0QbLggACumAOCA3nIAQHcPBw0QbLggACumAOCA3nIAU8CV/cRVnxPEELqKKWdANqFe15uZ9eyxodqoSiPMioISG/AF94sHD5yNyaeA66eE0imf4p5GsVYQ0HWiYBjuZko9Q2rGwHybNKY9FLZt1i4UuZmTDwH3PqGJhZWdVRGgihrejtamytzw6aJ/db6htVHAFKbggvbOlqb2fVH8WSZA14E7sVkaRuXuhR3CpU5uzOEqchEVY6keatYTLM7HPG3eRG4aS+aUgHcrE+TaGQQtnVJ+XS0NntuDmWdSTl4oeeYXt/QJICbg4mQ7pUCuB4ajARSBHC9OS6eoUoA1zNDMYoQAVxvjotnqBLA9cxQCOB6cyi8SZUArjfHRUhcb46LZ6gSwPXMUAiJ682h8CZVArjeHBchcb05Lp6hSgDXM0MhJK43h8KbVAngenNcXJe4EU8bdQ6V5aN2/FhzfY5b37DmDqKiL18Cg7MLGcOqf1G66dXRuqXdydTLZ+DGeEOJVgvtissmIaSN8cQpb5zw1Wld28DVb/Bo8v2gWMFu8egxhdM9BJ2gpIsSrQWSv90I0NkC7vKGpvsp9PCpjG49jGqah4VH7aQUbRJB587W5m1Ome6kfozvhEqNgFaXxoc4+RVsonZS2feM1cXUbeAuW9n0bULoWoBUUNAWSZWecXORjF5SeRR6CpmU/tWjecPmpkY2EQ3tbtJhd4zZ+I6ovjsS5ia7jlURxVcbm4e7djQ/ZRm4kYEkT0QYY/Mh6KSgG3dt37o5uYVMAjeyAvu+DYBl59PjHNt4etmEg+x/yioIbLwrXkW/VqeGv01AGN/t0s4mQScofYo3255bwI1Kv2dTzRs3XFmXrVr9KKHYwAXW9APRRgndlGpeOhk7nroR+gmbl0ZCRG+Kgm7iBm50JfsBT8M8hEbLsBXkqcSLA5kA7pX7vVjvaNIndYwxMNMATlhsGO1uPm1EJU+aSRk3gKv3QfP9yUAra+9obTadsKk6r9Mn4QeGGp9lrulB5p/kXdwsN59QIaKBWJ+XXMCNNs6yuGfkYQAIyuqT7GK228CNTDz6rMOV2KjfvRTkyUzcFc4C7aCyb66R5uAUuBygZby1DFwjCe7iJG0LyMoDmQgY4HRsDYGrG5o05Xl3V7M0bCXoJApZR2W6Nx3jrapU9Q1NTENwW1KlJI8tPrtat65za9JkerGM0UkIntq5vTntouwEuJygZaRYutcbpel5N7Ung3HrJSq500wzsTLubszLtMBNF4nCCoE2yjJDUNr9Gy9wI+kx5R8Q6HuGrD1ugXdZw+pns0i7obSzC1wLoGW5lbjvWS9rWLOWgGlQ2X3ciMAS3fawBcfWtiDW40hOqRRPjkBrOhK8A1y/qmlvVrSE1BS3dbQ232namTQFsgxalpHsmY4dW9NqJXaAawW0ZhI/kU2OQBtJ2M3il91hd2ycgNcKT0zo2xaQlbVjgGsZtBGGtFCQNj1zXDSlY9QgVEcIZabsFSC6NXSOXaaxejzAtTHxt8XyxUoa6Y2pRHoKTYlWsIx7GqWNvBn29P6ZgCEdDyzRzvjOjGMEbQFZbUveh0XO08PsuIjxXQ/yluohKllspAZaBa7FCbq5o7WZSysyoyO5b9FMh5uIStpS9Y+NL3y0kVL9hIF3XtpWm60Kk8RcxqxvyelSRwE3IsrlvZyGnKMUZIMVo0x0xWT7KV5GjRoPM+AuX9W0gVKw4x7zh9JnqM+/kfdIJ7qgbeRfsekDVqyS0YBsTI0yfij6iISNBZKykddoElXR1lLQtbEFiE0MULLeLBSQGWASI2BkCrRR+ln4HJ5jsHZKscGsX6MkuW7AZEdJPNKYdgVkdTEv79l7LC3IwGaiko1me+pRwK1fuXoj9DNas8lDnwn41A1WiE9s0RLAEioaATcKrLSGrVgz+oSV/Y28gE3mhD6RgRaObPS9AVmZy8Mj3onplHazYU31PS9wMwVaRlN9w5rnTf0GdM2PrrWyWCb3V188KWFaTLkhryxoVLwLMu9CGqMrDlyzAboy8d0Jk8rNJE7gGkQiTByDzQFZWc8DJqOBixq/2jjUZy5VsL6haZOROstoYQMblNUVTmm3Cl6zecEkbiZBa/b+GG+cLMajpG/E0aXFbGzNjtFYm7wLMgCueZJIZxy49Q1NLCCYobXLyeY81YTRpaRE20xXuGjldBKX02hhmTlm4B1WfUx1Trt/1CeVicXUJIqiTkKuQKureRE1Mm2wuICsVJo4V4xaOHn3tLFKZgtyJnjDBTgOqcupwdqalzpwzQYnMnuMrY9WV/JYeV4V1wgEuRjc2IoaUmUzyWt4RmkqbSn6qM9XZ1e1tzsusXqmc0N3oTTwU79CgOUJaqpmZog3nHtSw3HlAr8NSTtKVTabPGxV29W6Nf0lAoezg3fPm0p68QDfzHLqhHxdYipKp5HWYKRW1Tc0pY0jHaXryY7WZibZc/KYApePKsugZc2aaYFua4AWVX7DcalvaGJHbMwBKOXjVFPQJa7Z5DFT9/jGzrhUfUMTu8FieMaWig4OdcTWpLHSJ7NBivi9jgWfqUSx4QpohW6esi4A1xb/ObYQlt0kjfpr0UvwaEBW6ozsDWbHP04xRTgGxlUGpWMexyROuV80U5PZHiwbBp36hibmmJ76mIugs2N78+LkvpsvOtaOlHiAaLUMx/wwatIWaKPCxERiuWMkZe+y5LvAjuM0ssLw7Ns4+wN7pWNMETNp4bY6YjTKhpM/haEnuo9gqma6x/bEsTrBzfiYagEx1DIo+jp2NPOcW1ol1VJ5B8B1xHuDHFI6/W5lUIgaNplKy8Pro0QljWZnrObGUucLMgNu+qMIir6AT6nNhsTSVz4TB4pk9cJsUjlVR6zMcDPVLqWab5C1wc4RgRV6ecua8ThNO45Ay7F9cyyx9HesXPMECOWyH1jZk5rNYze0QAZco72lKwxya5KMAa6Jw7lbqzIv/fUrm3rTGalS+eS6fYWRl04r5awC18oET0eHmSZlxb853Ts4Lcex6pYWomxgyhC4bjDIyiQxsxAnA9dkZcvqohOVEmkXwWRemk3ObGoLRmNkBbhugJbRYvZOJ9s3Gzd0LFv1jbdA7hyregq40cnPnfQrn4FrNjndUKesLJppJZOJA0asnlug5QKuhWuAif2yeNwDuwuEEXDdEoYCuG7M7mgbVgbMDLjZVvMdA9ckkoYVNpvxxo424rbl2Kg/VuaBFb4klhXAtcu5FPWsDJjZtiDfJC676xqQlDvdMGS6DdzoUSO7fO+a5VgAN4EDVi2zhqpymrNTF3E6pimjQ/cJYZxyCbxmi1o6h5ZUY2t+NHOlllvqvpUF3O589JRV2cwJI9l10ax8ttVNIyuxZeDCPQcDu5ODZ785pm2XwGvES16/eauWYzdujlk1UtodG2Ji4OntaG2utNu41XpmPtPJQDRTqQDnB928fTBbRFLRsqxhdafB9TFLRxC8dFotZ87jFC26AF5Dy6yJNmU5AqTLF2iyJHFXs4jvBpEXsjP5OW5TpDzeMVyZHdy+sDrBzTx9Ul00MHF55L6Ib5VWK+VtAZe9wCF4zdxB010cyZblOOd7XLN9JQBHwc94J4mZt0k6TyKTw+6sTH5THqZxXzSX0qkvJ/Dy1I1ytoHrELwc+9wxGkk2Lcc5B66+jzFW2UwvgzudIBzSlnkqp4zhZOYjnA3XQY7QKmnVXiNvKwBZWXiMxs8RcB2C14rvuhXLMTNCSaq01szn2O68zoqqHAGuWaxa6wGyrHTadOIbONybSjuOKBRWaE0ua847ViP9dsNMJXQrVrPdPjoGrgPwmvI2utc1LZfQebcsx56QuLrEU3xdhpfBXY7UH+s4D9PNvE3MjFpMcrkdjZ7Rz6maHe1oba5NN9AcKiGratntzi5QxyxMJp5T0TCiadN8xtuzuec1k7oAy/PDkZUvQkhWDH5Zk7j6JOQIber26s8DWnDcUOKRum6DNxq3+E9mk4bHbY4ziAALOfqUW4DkbcdM4jJHEY7wPbHXWbaXcM0Rjs6YLf4cTXAXySpwo/tMFundLOaxK4mQeAeEl+EcUpcxvpdSPGAl5m6q0eKUtHqQN56QP5wLDzPVtgTk8Do3vJN4Z6EZcGNRHnnBa2fxN7PBmPWFZ/E0a8PK91kFrr7X5XQoZwAA6Do7MWytnLHxTnxGO4+6n8D8jQFZecoOAKJ3OFnwbFP3OSuxrjgXHrZf7qIEG+zkcI2MbyRuNksyztOG2ZyIna1bCFmr53e1kiCNczsxFlsc0SpilViicw16xopagPQSFU/ZNV5lHbisE2bGkiTucCcC1hMzK8qj3LlALTA9RhPH8Uoi+Uz6boTPt5kngqLVxMm8mkKMIAsaT6RKNDl4UFK3GS1AOqA0+X4Csn5MNEaOfScvcGOLZ6YkL89WLmlummpXUU2HLWSpEp3btovkBLi65DU5HkqhNvQCpI1S2inpE4qwrHuglLKYvBUgWMEZwjOhaXuOHzYGOJqlHW2ghBno2HaBSaRaaKSWEFIHUBZv2lTCJhBvywhiNc50/H2REKlsorL7wBFc8/Pd0PBlBbhxzUf1sagq95upl1YlL79WkvDmKG8AdFKK3uh4VgCUSda0RsNoC5b35LrwMwhOYXVBT8fDlNn6rKg9ZoNj53unexJbA2yH0NR1bIE21hTv3t89co0Dl1kF7hXtxzw7g75AWlCbczEv7fi75wy4VtUe1yaRC/lfrE4c12iPNOQItDkCr2Fgb7vAjUoe09Qq0T5zH3dFtxRcEt2Nsc074CaoPS1m8Y7dYBAArgh6Vt5lcb9upelUZbknH8+L7ORW4mk3RRlXVeXk9jm1H8thhrI0trYW4pxK3MQB0N0KKTbw5vixOoGY3m8lbaSV9qMSg63QZsdcVppNLNtOVLLergXS6KVR4wmj3XYyZqP2eaz2ZhZdHonEAV7LwGX90nMYy9omswRdNge2PSArjbZOHgz2uE63gbG+pNzjpupodBKxYxDDJFcWmbSZyr4NPFZdi+2OKs7UqxHNt55qWO/i4mM5P7DdPjjNK5zyvZQ/VaqBP7Whmp20+BuEAXYWQM1l/hwF6Ho7R52x/hotVFaOCI3mCzdw4/svPVdOeL3tDPPRTOpWkkrbnfDJ9VIleLbR9jYK0mIlobeNd6SsEj3uYhH+7Urgo6C0xSrvUx6z2TquS2Gw4vCM4+VfVLtaC4pGGwu0a+NqkE/Kluqdqv+WgZvYSERVQR2hWh30YxP9YSb2OcxVMXa0AoCl52Dm+E6nXku8g2hWTj9XVtUVo2hnWediSY0T6aeUJfVqC8hqmx3VyYwWq9/r1lXFVydJWEFpJDUqBa1IUhnb2eeEoE1jx1yy3OZEs2FjDR9tpBR1hKBTk3yb7LSXsPgw8nqp7Ftvpx0znjEQR/nD5mWFfhwZHduof3UvKO2kROoMyuEWt8c1Al5dwMVw0eJm8rb/D7mpKrF7XOBuAAAAAElFTkSuQmCC;fontSize=18;rounded=0;labelBackgroundColor=none;strokeColor=#f47668;" parent="1" vertex="1">
          <mxGeometry x="369.5" y="223.18000000000006" width="88" height="73.95" as="geometry" />
        </mxCell>
        <mxCell id="LuIQuzxRRM_9D2CJ-Mg1-12" style="edgeStyle=none;rounded=0;orthogonalLoop=1;jettySize=auto;html=1;entryX=0;entryY=0.5;entryDx=0;entryDy=0;fontSize=18;labelBackgroundColor=none;fontColor=default;strokeColor=#f47668;strokeWidth=5;" parent="1" edge="1">
          <mxGeometry relative="1" as="geometry">
            <mxPoint x="160.5" y="260" as="sourcePoint" />
            <mxPoint x="217.5" y="259.75" as="targetPoint" />
          </mxGeometry>
        </mxCell>
        <mxCell id="LuIQuzxRRM_9D2CJ-Mg1-13" value="" style="shape=image;verticalLabelPosition=bottom;verticalAlign=top;imageAspect=0;aspect=fixed;image=data:image/png,iVBORw0KGgoAAAANSUhEUgAAAMgAAADICAYAAACtWK6eAAAAAXNSR0IArs4c6QAAGABJREFUeF7tnQnUJUV1x3813W/QKKIEZFVQwyJLQBQZDRAMRNmUnRBAZTVRHJElgBoIyK4CioNGkGUgAcKmqCyiGBHZwRVEgiyKYEQkUQ7ozKue9tRUD4zffN/rquqq9/p9feucOXDOd++tuv96/9eva/lfhTRBQBCYEgEl2AgCgsDUCAhB5NMhCAxAQAgiHw9BQAginwFBIAwBeYKE4SZeHUFACNKRiZY0wxAQgoThJl4dQUAI0pGJljTDEBCChOEmXh1BQAjSkYmWNMMQEIKE4SZeHUFACNKRiZY0wxAQgoThJl4dQUAI0pGJljTDEBCChOEmXh1BQAjSkYmWNMMQEIKE4SZeHUFACNKRiZY0wxAQgoThJl4dQUAI0pGJljTDEBCChOEmXh1BQAjSkYmWNMMQEIKE4SZeHUFACNKRiZY0wxAQgoThJl4dQUAI0pGJljTDEBCChOEmXh1BQAjSkYmWNMMQEIKE4SZeHUFACNKRiZY0wxAQgoThJl4dQUAI0pGJljTDEBCChOEmXh1BQAjSkYmWNMMQEIKE4SZeHUFACNKRiZY0wxAQgoTh1tRruZmwcgGrACsrWLmEVcx/TeASnlDwuPkv8EQGj8+3//9U047F3w8BIYgfXsHWOWwG7ArsAbwyMNCTwKXAFRpuDowhbh4ICEE8wPI1zeHvgbeXsKuC1X39B9mX8KiCK4AbNHwjZmyJ9QICQpD4n4Zlcvgg8F5gjfjhJ434IDBXwxzgd0PqsxPdCEEiTnMPDiotOdaOGNYn1E8VzOnDWT5OYjs1AkKQCJ+ODPZUMBuYFSFcjBC3l/DZAi6OEazLMYQgDWY/h7cARwPbNAiT0vU64HgNt6XsZDrHFoIEzm4PDizhNGDpwBDDcntGwWF9OGdYHU6nfoQgAbOZw2eADwW4jtLlTA0Hj3IA49i3EMRz1nK4Efg7T7e2mH9Lw5ZtGcw4jEMI4jFLOfy6wSafR09JTZ/UsELSHqZRcCGI42Rm8LCC1ziat9qshEcKeG2rB9mSwQlBHCYig3MV7OdgOjYmJZxXwP5jM+ARDVQIUgN8D95fwudGND9Ju1XwgT58PmknYx58uhLkpTm8FbtPsUQr4Wc53DUP/mfQ/GWwk4KrxnyOBw6/hJ0L+FJNjqtnsIWC1aawu0nDncBz0w2r6UKQl2SwrbKEMLvZkxJj4uRVu82TLtdWm4D/DSw13SZ9Qj7zgLdNtZnYg/eV8AVHDL4NmF38uwu4HnjW0a+1ZmNNkB5sXMJu5l/oadkSzi3ggAkzlOdwB7BRa2cu7sC+p2ETQC8etgcfKAPPdVWnjS9XcHkf7oo73OFFG0uCZLCPgt2AbSNBtbWGry+K1YNDSjg9UuyxCKPg0D6csdhgl8/gNgWvi5DAtSVcXsAFEWINNcS4EWS1Hpxcwj9GRukMDYdWMc0H447psqTrilO19GueIr8xPhnsqOrfTVzDL7RTcEkfPgL83MtxhMZjQ5AMdgFOUfBXCfC6UtvbfuTw8eoAYoJuWh/SHGw8xoyyB7NLODP2iM0CCXBUAVfGjp0i3lgQJIeTDagpAKhifkXDDkvBmgXcDrwiYV9tDv1/Gcwyq3sZ7KXgPxIO9hRtnyatbq0nSA8uMy/hiVH8iIZTMjizuteRuLv2hl+0sld9WTyQcqTVC/zuKftoGrvVBBkGOUp4LIPt5sOzOTzUFNDp4J/BWtVT5HwF+6TMqe0kaS1BhkGO6oV0bw03eK73p/zMjDz24itaud0o3SnloNpMklYSJDE5/h94tIRbC7uUu/CpkbjPlJ+vFLFv1LDVosDVsrq5a28OOCZ5P2srSVpHkNwut5qbek3aDcD3S7i9ALO7a0gxsOXwdKrJr+u7jX/X9uTyo3VjMycOVHV6oYTtgRfX+Qz4+8c0nNTAP7pr2wiyWg63GrXBgEwXiapd6nsHO4NtFFwb0Od0djlM+2+Wvi63wnjm33oB4DynYPM+3BPgm8SlVQQJXUWqHs9mGfjhEJRC+w3pa4x8btGwaeh4czgFODLA/ypt97xa0VpDkBw2B24KQOUoDacG+D3vksGDiTYgmwxr5L4aVsTeogxqmV2eN5u7XpezFPxTH84O6jSyU5sIcjXwLp/8Sti9gMt9fCaxXTqH3zeMMS3dS9i2ACMdFNxmwjoL4DJgXdcgJfy8gI0XHXtx9Uth1wqCVKdyzX0C5xaJHMyEtRfA/c4dd8iwhL1iiM+FkETBQf0WXFRrBUFy+ATwL66fvVjkMP3lVqHEKJVIm4CAOVXQt3q/jVsPNizhOx46Yt/W8LbGHTcM0AaCmMtO97re54j9+zSDvRVc1BDH6ep+jIbjYyWX25d28/Lu2sxFLrNMP7I2coJUm1DnOyJwj4Y3Odo6mQVMmlPcaWL0aQ2HxMzFR1fMaAEUcFDM/n1jjZwgOVzjevEp9tOj+ok1jiqJvvMcZF/C3CLyWawMdlfwX44D+o229+D/4Ggf3awNBHnccWMw+tOjIohZBVt4F0TaEgh8VXuuLDpgaK4z/8S1dsoMWG8+3OcQN4nJSAmyFKxR1CiLLJb1ERo+GRuFHL6JyHFOBes3ta2SFbX5bCKWsEMBX4k6AI9gIyWIz7XOEt5ZwNc8cnMyHcZpVaeBtNPo+ZuWMYeX2x16pxqLk9yVjzmU2lgjJUgO/wYcWztKK7dhxAOCjpIMip9B8jsPLvm10Sah+uKKOfzKJWejqlLYql0jaaMmiHl0vtMh82c0vMzBzttkTEsZeOcZ6LC4mEVgiMndcisOsZxD0Ov1CAsUjZogRlzsHQ4g3VnpNjmY+pnkdp3/X/28OmN9rIbjUmRb6Y692SH21zVs7WCXxGTUBDGSlzs6ZJZsVzWD9yiY6zCGzpmUsEuRSHo1B6NauYUDqF/WiW80DhrDSAnSg4sdNa6SEaQHbyjhew4T1TmTDNacB6bEdPTmSpBKS2vP6ANwDDhSgniUFUhGEHMcK4e+I15dMvujbnY7cCBWrgRJuFDgNJejJsgcc2qzbqRGbKyANersQv9ebVy9PtR/mvrdpcHlHSEofdeCRF1fxTIbf4e7IKzhVcAvXWx9bTI4y9TK8PWb5vbJXtCB1XN4xBG/T2mPk96OMZ3NRvoE8ZH5jHnEfSI6ud0tNkIP0ioEFGzch7tTAJLBngr+0zH283KojvZRzUZNEOe7GIlPdmbVxtXyUdEd32D36TDRBaeMPZ/Yf6a879RBRKOREsTkkVtJnmUccnpaw/rAEw623iYZXKDgvd6O09PhMxo+nCi1lXP4MbCsQ/xkG8QOfS80GTlBMjhPwb6OAw6RonEKncHOakwUx50Sama0qYZbmoWY3NtT9+wKnV6XeWCabSCIz/2AH1anSxfWsIjdcritKuEWO/Q4xbtau23ehuS0fA7fADZwcS7hgALOdbFNZTNyggAGNHMnpOeSZMp18R580Kibu4xjutqkXAzx2Pcy8Opq5fJ/R4l1Gwhi3kO8JH8SKl68PIMfKbuk3MV2t7ZyO9FbQL3Da7SVMh1pawVBMthXwXk+SKT6pvP8jewz5NbblvDuIkHRHCMgp6w2lnNrw88rM9hWEMQMJERdPSFJjFjayE6QOn+K4hourLIVN+TCWofe5ACu1bBd7LGExGsTQcyhQaOb9FKfRFKQJIe/qWRQM5+xjLltdImdQHIYGLfU8K024NkaghgwcluzLkT+3hyLMFquTrfUXID3ue3oEq/lNqdrOCziGFfK4X2ut0UX73fUZ68mYtAqglQkMU+RzQImy2wgnh2TKBmco+CAgLGMk8t3dRjek+W4iBiGHCElLH6l7dPb9ZxWcpxbR5AItTqeUHBzCQ+WcH8GP55vd25DmjmCYoQipuv7yDxtd7SfCwEHeE0G6ypYz/wrrVRoCDEWdX+4bl48KTCVyd1aR5DqKXI0tl55tFbaoyRzA6QsTVGfr2KPuUyrpmCjPnzfJ6kctjBP1dLeE3c5LuIU3hxe7MPeTsZDNGolQSqSGDFrI2odu3kf465kasyTxOXMWOzxporn/VKe6r1sUenpVIk2idtagpikejC7hDObJDiF75e0fYl8yjW2+ebE3qOeDs2XHMv2YI7j9WhffLy/sHw7aGLfaoKYxDLYX8EXmyQ5ha+3Uso0IYkvOczq4u3AJrHnQMHB/TRfgNGG2nqCVCTxuWDjDI6CTfrgVbgHWCmDm5UVshunZq4LvNGlcu3iSfVggxJ+EDvREt5TjEHZibEgSMguu+OEnqjDNLFM2TajChlz78BxyP5m1Quw0f6qLes8MXoOHwVO9O+11iPlnZPazl0NWk2QDP7dlDxwTSbArpEoWaqX1oA8pnQxq3eFFX/zJocJmtvy2GbFKklr+5OklQSpvrUOBf4yyaxUQUs4u/An4KrVgcaohWVS5mliK7hUwUm+e0IZOCnPNBz/fSUcUbSwVn2rCJLDVtXS7hsaAu7k7nNitAezFsCBCvZzCt5eI6NmOcf1rFPCRZIlEDKFdUo7tu+2Bb7WEKQHHy7tLuqMIYHj9PMqg10V7OUokTqkoUfp5roSLizg0rpoObhqKNeFcvp7CecU9k586A6/Uz8uRm0gyDIZnKZgf5cBR7Ixeq9GB2vKw40Z7KTsC2rUmoiRxh8zzN0lnFjAlwcEXaEHp5my0DE7rol1k4Z3A48Nsc/Jnmqj6746Vm6eGtHX2CdkZa70GqC/U8KdxWBxhuUzOEaNsCbFiGbEFOw0L/NGZWbSlsEe5iCpsl8aa6U+WWAUNWfA7r7HYWLiN7InSHVXwFS3fUnEhMyG1tUlPKbgF9qS4hfAApc+zAdAwTFAV2VIf1DCcTVPk8WhNIVw1lawVmkJY/4ZET4nfQGXOal+Zu2ordjD0NtICNLgIs1kAN0LfG0GzJ0PPw1EcNXqqXFgoP90c6t9mgxKOINtgXcpWwB0pRjgmGMuLu9LMfpaPMbQCRKJHL/F3p02F/sbfbOY+iDYn1TjtjMe+7MwMZ7v02Sqn2VmD2UbBaaEQaNlewWz+zAndeIjI0gMcpiNrwxObfC0eD7/3K6amf0WaVMjcJKGjzUFaCasXcCRqnnd9aEebhzaEyQCOe4q4dSaF2zneezZNffdnR06bBi4oTrVE2UXBUfSQF4oZWGfiYMeCkF68ObS1iNfOuBz9ixwqoZTgfkB/ku45HYjylztlOaOwFUadnE3H2g5M7ckMf9CFmmGptk7FILklhxbBoB7q1lujbjMt1wGdytYLWAs4gI3a9g8FhBV+Tujh7ahb8xhiTskJ0huVUqMWolXU3B5H/4ZeNrLcQrjmfD6BfZuepekfGJANzHG/RrWiRjYnG27PEQTeRgrW0kJksGOCszZH68WW383t6odRi1FWhwEntIQtZZKbnWwjOiDV5sB682H+7ycPIxTEmSV6qfV2h7jMaax7wksm4NZFpYWGQEdWZmzEsfw1eO9Xic8jp+MIBmcrcB34+0EDUbRJFqrKketGC2gBFocgejVh3Mr1GEEO3xasjqGSQiSw1uAW30yBKKD3YNLSnt+SFo6BKLvS/Tg0hL+wWPICxS8sZ/ganASgmRwkfLTOHpSwwoegNSa5nCEWR6uNRSDxgiYD3Phqd5e12kGDyl4bZ3dor+beyQFzHa1d7WLTpAcnAtzLjZIb6WNQQlmsJdKIOPvCmpH7TaLedHJ7LwvgPs9sPzjDNhovp9PbfgUBDFLdrvW9vyCwUc1nOxhP9A0tyshrVAGj5XTOMQp4dHCfjlG09U15+SMGqZH/rFFuOPWB8lgO2W1bJ1aCecWccWhX1WtnK3pNAAxio3ADdqe4J0XK7DnnfjfVdJGD8XqP+oTJIO5yp6OdWm/1XYH9Zcuxi42OZxBuvLFLkMQG/iEtkdIYjWzkWh0uVxPAp+s7U3QKC0mQV6U28tJrhtIp2k4PEoWVp5GNgNjgdk8TtQy0jl8ykODzCz4GIG8KF+80QiSwfbKqqC7tAUzYENfCZpBgXO7Y7+jS+dikxyBqKWkZ8L6C+xTxFXQI9rSc0yCnKWsEEJtK+H8IqJ8TgZ7qzGQsawFZhoZlLB/4VmYdVD6GZynYF9HiJwUa1xiRSNIDk96/LzaQsNNLgN0sPmLHG4JORHqEFtMwhF4QMOmPgr6Nb8Q/tZsJjsO5/caXhljsSAKQTxVz43kzk6Oidaa5VZb9/haQzEYBQJRX9g9f0ZvpeHGpknHIojzS1QJ+xZwQdOBG//qCLs50vLyGPEkRhIEor2wZ7CfgnMdRxnlPSQWQQxTzSZRbdP2+ECUzaQMPqfg/bWdisEoEYj2wr4UrFnAA47JRHkPiUUQc6npFQ4D9y5aMyCm2RT8kTw9HFAfsYmCjftwd4xh5LamossNRPMe0rhkXgyCrJ67PxFO0QG3CycDVg4jxvi4DS2G0RQ4KkZvPjvrMYjZmCCVhu1Vjsm/vamO1aJ+PL5JHIcmZqkQMBKiBawbQ3Qjgx3UYB3h59NQcEgfPt0kr8YEyW25ZqdLThpeFGPpLYPdjVR+k8TFd7gIGOHrAi6O0Ks5sfEHxzif1PbaQ3CLQRCze+5yTTLahSjP5b5gcMQxKgKmsvDOMSLmttqwqTo8sMXQ84pBELPMam4Q1rVrNWxXZ1T390pj6446O/l7+xCYAX8d43hRDtdg9X8HNvMro9/wRmkMgpgzMhvUDRa4UvvdE5k0pJzYdUC6vSYf17b4aaOWwxW4idhdpx2INGgwMQhi1qVr71+UcFHhfhR+qjGb6rI/wx4jkDZ+CPxE25f1Ri2DC5UtrlPXbtUNFTRjEMTU4Fi1bqQlfKGwQnDBLbfqjEalUdqYIqBgVh8a/UT2qH58r4b1m0AVgyBPOV5mOUM3VFLP7R6KUWqUNqYIKDi4D2c2GX4OpwO1VYZNIaUCXt2krxgEMYUWX+wwiBO1PVgY3HIw+y3RDjoGD0QcgxFQcHG/Ya3DHE7ArSSDuYLb6JxeDIKUjmgdrm09juCW21tiqwQHEMeRI1DCw0XDYkVVRWRzvbq2NVV/jEGQa00FobqRlrBnAZfU2U3195mwzoKEGqyh4xI/fwQyWGOeXWwJah61Zm7T8NagTiqnGAQxy3bH1g1CwYZ9+GGd3VR/H2ZB+9Axip8bAiXsU/jJ+fxZ4B68qYS7HHpr/N7bmCBmkDmYQpqDlu8a/7zK4ItDrqXugL+YhCAQY4c7g/NryrndUolaPxMyxkU+UQhigvXgshJ2mzCYXwMXNj0P40jCJjiI73ARaLz8aoabWf3ekyZKlBpVzRlwwjz3uyNTZh+NINWAt58Bry6t9M9NGu4BGjG4Gnkvj1R+bbifA+ltKgT0wguh9CMg9LJKLH1WCY8oeDzGVdvoT5AIiQ4KsXIOjyfuQ8IPEQFtVyOfGGKXQV1FfYIEjcDBqQcblAmk7R26FpNECDRdtEk0rCXCjgVB5IjJsD4OQ+0niupI6hGPBUEy2EM12ENJDaLE90dgGAU4/Ue1pMdYEKQHs8uG53digCUx4iGg4EN9+Gy8iGkijQVBcjgOOCYNBBJ1RAhEuRuSeuxjQRDRv0r9MRh+/BI+XzhqOQ9/dC/0OBYEqQrN+1StGiWm0rcbAlfoJTeW3TyHaDUuBHG6pD9E3KSr5ghEE/FoPpSpI4wFQTI4R8Ut1ZYSU4nthkDU2pRuXfpbjQVBcnvRv/bEsH/64jFCBN6h4YYR9u/U9VgQxGTiqoXklLUYjRqBaBpZqRMZG4IYZe8FcHQJe6cGReKnQ0DB7D7MSddD3MhjQ5BFaeewNWCqDc2KC4VES4zA7dUJ7+sT9xM1/NgRJGr2EkwQqEFACCIfEUFgAAJCEPl4CAJCEPkMCAJhCMgTJAw38eoIAkKQjky0pBmGgBAkDDfx6ggCQpCOTLSkGYaAECQMN/HqCAJCkI5MtKQZhoAQJAw38eoIAkKQjky0pBmGgBAkDDfx6ggCQpCOTLSkGYaAECQMN/HqCAJCkI5MtKQZhoAQJAw38eoIAkKQjky0pBmGgBAkDDfx6ggCQpCOTLSkGYaAECQMN/HqCAJCkI5MtKQZhoAQJAw38eoIAkKQjky0pBmGgBAkDDfx6ggCQpCOTLSkGYaAECQMN/HqCAJCkI5MtKQZhoAQJAw38eoIAkKQjky0pBmGgBAkDDfx6ggCQpCOTLSkGYaAECQMN/HqCAJCkI5MtKQZhoAQJAw38eoIAkKQjky0pBmGgBAkDDfx6ggCfwKB99AFF5YPFwAAAABJRU5ErkJggg==;fontSize=18;rounded=0;labelBackgroundColor=none;strokeColor=#f47668;" parent="1" vertex="1">
          <mxGeometry x="84.87" y="222.36000000000013" width="74.77" height="74.77" as="geometry" />
        </mxCell>
        <mxCell id="LuIQuzxRRM_9D2CJ-Mg1-14" style="edgeStyle=none;rounded=0;orthogonalLoop=1;jettySize=auto;html=1;entryX=0;entryY=0.5;entryDx=0;entryDy=0;fontSize=18;labelBackgroundColor=none;fontColor=default;strokeColor=#f47668;strokeWidth=5;" parent="1" edge="1">
          <mxGeometry relative="1" as="geometry">
            <mxPoint x="297.5" y="260" as="sourcePoint" />
            <mxPoint x="366.5" y="260.155" as="targetPoint" />
          </mxGeometry>
        </mxCell>
        <mxCell id="LuIQuzxRRM_9D2CJ-Mg1-15" value="" style="shape=image;verticalLabelPosition=bottom;verticalAlign=top;imageAspect=0;aspect=fixed;image=data:image/png,iVBORw0KGgoAAAANSUhEUgAAAMgAAADICAYAAACtWK6eAAAAAXNSR0IArs4c6QAABs1JREFUeF7t3NFtG0kYBGER8AWiCH0ZWM7gHKECOQM8MACdp4ld4t+ez8/N1UwVS34R9vbmHwIIfEnghg0CCHxNQCC+HQj8DwGB+HogIBDfAQSeI+B/kOe4+dQmBASyiWjXfI6AQJ7j5lObEBDIJqJd8zkCAnmOm09tQkAgm4h2zecICOQ5bj61CYE4kG+/Pn9swsY1Cwn8/v7+M7nWU4Hc7m8fyQ+xRWACgfvt7UMgE0w4w0gCAhmpxaGmEBDIFBPOMZKAQEZqcagpBAQyxYRzjCQgkJFaHGoKAYFMMeEcIwkIZKQWh5pCQCBTTDjHSAICGanFoaYQEMgUE84xkoBARmpxqCkEBDLFhHOMJCCQkVocagoBgUwx4RwjCQhkpBaHmkJAIFNMOMdIAgIZqcWhphAQyBQTzjGSgEBGanGoKQQEMsWEc4wkIJCRWhxqCgGBTDHhHCMJ1ATyuMhIwg51KoGz37dWFUj6gq9TzXn46QQeb+wUyCLmZ0pffLTZUAICCcQIJIBVMhVIIFIgAaySqUACkQIJYJVMBRKIFEgAq2QqkECkQAJYJVOBBCIFEsAqmQokECmQAFbJVCCBSIEEsEqmAglECiSAVTIVSCBSIAGskqlAApECCWCVTAUSiBRIAKtkKpBApEACWCVTgQQiBRLAKpkKJBApkABWyVQggUiBBLBKpgIJRAokgFUyFUggUiABrJKpQAKRAglglUwFEogUSACrZCqQQKRAAlglU4EEIgUSwCqZCiQQKZAAVslUIIFIgQSwSqYCCUQKJIBVMhVIIFIgAaySqUACkQIJYJVMBRKIFEgAq2QqkECkQAJYJVOBBCIFEsAqmQokECmQAFbJVCCBSIEEsEqmAglECiSAVTIVSCBSIAGskqlAApECCWCVTAUSiBRIAKtkKpBApEACWCVTgQQiBRLAKpkKJBApkABWyVQggUiBBLBKpgIJRAokgFUyFUggUiABrJKpQAKRAglglUwFEogUSACrZCqQQKRAAlglU4EEIgUSwCqZCiQQKZAAVslUIIFIgQSwSqYCCUQKJIBVMhVIIFIgAaySqUACkQIJYJVMBRKIFEgAq2QqkECkQAJYJVOBBCIFEsAqmQokECmQAFbJVCCBSIEEsEqmAglECiSAVTIVSCBSIAGskqlAApECCWCVTAUSiBRIAKtkKpBApEACWCVTgQQiBRLAKpkKJBApkABWyVQggUiBBLBKpgIJRAokgFUyFUggUiABrJKpQAKRAglglUwFEogUSACrZCqQQKRAAlglU4EEIgUSwCqZCiQQKZAAVslUIIFIgQSwSqYCCUQ+AgnmpiUEbvdzvT/zi/eWsn1F6emZ7BFYISCQFUo22xIQyLbqXXyFgEBWKNlsS0Ag26p38RUCAlmhZLMtAYFsq97FVwgIZIWSzbYEBLKtehdfISCQFUo22xIQyLbqXXyFgEBWKNlsS0Ag26p38RUCAlmhZLMtAYFsq97FVwgIZIWSzbYEBLKtehdfISCQFUo22xIQyLbqXXyFgEBWKNlsS0Ag26p38RUCAlmhZLMtAYFsq97FVwgIZIWSzbYEXhbItoRd/PIEfn9//5lcIn5xXPJwWwSuTkAgVzfo/KcSEMipeD386gQEcnWDzn8qAYGcitfDr05AIFc36PynEhDIqXg9/OoEBHJ1g85/KgGBnIrXw69OQCBXN+j8pxIQyKl4PfzqBARydYPOfyoBgQR4//rn8x7Mx07//fud90U7QC2CeswEEsAqmQokECmQAFbJVCCBSIEEsEqmAglECiSAVTIVSCBSIAGskqlAApECCWCVTAUSiBRIAKtkKpBApEACWCVTgQQiBRLAKpkKJBApkABWyVQggUiBBLBKpnEg3359/ii5e3yN2/3tI/7QwA883jA48FgvOdLpL457BNLyRXmJET9kDIGXvXpUIGOcO0hAQCABLNP9CAhkP+duHBAQSADLdD8CAtnPuRsHBAQSwDLdj4BA9nPuxgEBgQSwTPcjIJD9nLtxQEAgASzT/QgIZD/nbhwQeEkgwXnqpv6at07pHy8U/zXvH59YPBBIsdwvriaQwLlAAlglU4EEIgUSwCqZCiQQKZAAVslUIIFIgQSwSqYCCUQKJIBVMhVIIFIgAaySqUACkQIJYJVMBRKIFEgAq2QqkECkQAJYJVOBBCIFEsAqmQokENny0rz05WkBorqpQOqUutCRBARyJE3PqiMgkDqlLnQkAYEcSdOz6ggIpE6pCx1JQCBH0vSsOgICqVPqQkcSEMiRND2rjoBA6pS60JEEBHIkTc+qIyCQOqUudCQBgRxJ07PqCPwH4Ek4Iyb2ipwAAAAASUVORK5CYII=;fontSize=18;rounded=0;labelBackgroundColor=none;strokeColor=#f47668;" parent="1" vertex="1">
          <mxGeometry x="221.5" y="224.75" width="70" height="70" as="geometry" />
        </mxCell>
        <mxCell id="LuIQuzxRRM_9D2CJ-Mg1-16" value="" style="group;fontSize=13;fontStyle=0" parent="1" vertex="1" connectable="0">
          <mxGeometry x="82" y="305" width="663" height="38" as="geometry" />
        </mxCell>
        <mxCell id="LuIQuzxRRM_9D2CJ-Mg1-17" value="开发" style="shape=step;perimeter=stepPerimeter;whiteSpace=wrap;html=1;fixedSize=1;rounded=0;labelBackgroundColor=none;fontSize=13;fontStyle=0" parent="LuIQuzxRRM_9D2CJ-Mg1-16" vertex="1">
          <mxGeometry width="148.43283582089552" height="38" as="geometry" />
        </mxCell>
        <mxCell id="LuIQuzxRRM_9D2CJ-Mg1-18" value="编译" style="shape=step;perimeter=stepPerimeter;whiteSpace=wrap;html=1;fixedSize=1;rounded=0;labelBackgroundColor=none;fontSize=13;fontStyle=0" parent="LuIQuzxRRM_9D2CJ-Mg1-16" vertex="1">
          <mxGeometry x="129.63134328358208" width="148.43283582089552" height="38" as="geometry" />
        </mxCell>
        <mxCell id="LuIQuzxRRM_9D2CJ-Mg1-19" value="打包-&amp;gt;镜像仓库" style="shape=step;perimeter=stepPerimeter;whiteSpace=wrap;html=1;fixedSize=1;rounded=0;labelBackgroundColor=none;fontSize=13;fontStyle=0" parent="LuIQuzxRRM_9D2CJ-Mg1-16" vertex="1">
          <mxGeometry x="259.26268656716417" width="148.43283582089552" height="38" as="geometry" />
        </mxCell>
        <mxCell id="LuIQuzxRRM_9D2CJ-Mg1-20" value="部署" style="shape=step;perimeter=stepPerimeter;whiteSpace=wrap;html=1;fixedSize=1;rounded=0;labelBackgroundColor=none;fontSize=13;fontStyle=0" parent="LuIQuzxRRM_9D2CJ-Mg1-16" vertex="1">
          <mxGeometry x="385.9253731343283" width="148.43283582089552" height="38" as="geometry" />
        </mxCell>
        <mxCell id="LuIQuzxRRM_9D2CJ-Mg1-21" value="测试" style="shape=step;perimeter=stepPerimeter;whiteSpace=wrap;html=1;fixedSize=1;rounded=0;labelBackgroundColor=none;fontSize=13;fontStyle=0" parent="LuIQuzxRRM_9D2CJ-Mg1-16" vertex="1">
          <mxGeometry x="514.5671641791045" width="148.43283582089552" height="38" as="geometry" />
        </mxCell>
        <mxCell id="LuIQuzxRRM_9D2CJ-Mg1-22" value="&lt;font style=&quot;font-size: 26px;&quot;&gt;git&lt;/font&gt;" style="text;html=1;strokeColor=none;fillColor=none;align=center;verticalAlign=middle;whiteSpace=wrap;rounded=0;fontSize=26;fontFamily=Times New Roman;fontStyle=1;fontColor=#394d54;" parent="1" vertex="1">
          <mxGeometry x="239.64999999999998" y="125.86999999999989" width="54" height="49.79" as="geometry" />
        </mxCell>
        <mxCell id="LuIQuzxRRM_9D2CJ-Mg1-23" value="Init" style="text;html=1;strokeColor=none;fillColor=none;align=center;verticalAlign=middle;whiteSpace=wrap;rounded=0;fontSize=18;fontFamily=Times New Roman;" parent="1" vertex="1">
          <mxGeometry x="162" y="73" width="60" height="30" as="geometry" />
        </mxCell>
        <mxCell id="LuIQuzxRRM_9D2CJ-Mg1-24" value="&lt;font style=&quot;font-size: 26px;&quot;&gt;gitlab&lt;/font&gt;" style="text;html=1;strokeColor=none;fillColor=none;align=center;verticalAlign=middle;whiteSpace=wrap;rounded=0;fontSize=26;fontFamily=Times New Roman;fontStyle=1;fontColor=#394d54;" parent="1" vertex="1">
          <mxGeometry x="387.5" y="125.86999999999989" width="54" height="49.79" as="geometry" />
        </mxCell>
        <mxCell id="LuIQuzxRRM_9D2CJ-Mg1-25" value="Push" style="text;html=1;strokeColor=none;fillColor=none;align=center;verticalAlign=middle;whiteSpace=wrap;rounded=0;fontSize=18;fontFamily=Times New Roman;" parent="1" vertex="1">
          <mxGeometry x="313.5" y="77" width="60" height="30" as="geometry" />
        </mxCell>
        <mxCell id="LuIQuzxRRM_9D2CJ-Mg1-26" value="Checkout" style="text;html=1;strokeColor=none;fillColor=none;align=center;verticalAlign=middle;whiteSpace=wrap;rounded=0;fontSize=18;fontFamily=Times New Roman;" parent="1" vertex="1">
          <mxGeometry x="463.5" y="73" width="60" height="30" as="geometry" />
        </mxCell>
        <mxCell id="LuIQuzxRRM_9D2CJ-Mg1-27" value="Pull" style="text;html=1;strokeColor=none;fillColor=none;align=center;verticalAlign=middle;whiteSpace=wrap;rounded=0;fontSize=18;fontFamily=Times New Roman;" parent="1" vertex="1">
          <mxGeometry x="468.5" y="223.18000000000006" width="60" height="30" as="geometry" />
        </mxCell>
        <mxCell id="LuIQuzxRRM_9D2CJ-Mg1-28" value="Run" style="text;html=1;strokeColor=none;fillColor=none;align=center;verticalAlign=middle;whiteSpace=wrap;rounded=0;fontSize=18;fontFamily=Times New Roman;" parent="1" vertex="1">
          <mxGeometry x="294.5" y="224.75" width="60" height="30" as="geometry" />
        </mxCell>
        <mxCell id="LuIQuzxRRM_9D2CJ-Mg1-29" value="Test" style="text;html=1;strokeColor=none;fillColor=none;align=center;verticalAlign=middle;whiteSpace=wrap;rounded=0;fontSize=18;fontFamily=Times New Roman;" parent="1" vertex="1">
          <mxGeometry x="156" y="224.75" width="60" height="30" as="geometry" />
        </mxCell>
        <mxCell id="LuIQuzxRRM_9D2CJ-Mg1-30" value="Build" style="text;html=1;strokeColor=none;fillColor=none;align=center;verticalAlign=middle;whiteSpace=wrap;rounded=0;fontSize=18;fontFamily=Times New Roman;" parent="1" vertex="1">
          <mxGeometry x="620.5" y="81.66000000000008" width="60" height="30" as="geometry" />
        </mxCell>
        <mxCell id="LuIQuzxRRM_9D2CJ-Mg1-31" value="Push" style="text;html=1;strokeColor=none;fillColor=none;align=center;verticalAlign=middle;whiteSpace=wrap;rounded=0;fontSize=18;fontFamily=Times New Roman;" parent="1" vertex="1">
          <mxGeometry x="617.5" y="203.36000000000013" width="60" height="30" as="geometry" />
        </mxCell>
        <mxCell id="LuIQuzxRRM_9D2CJ-Mg1-32" value="CI" style="text;html=1;strokeColor=none;fillColor=none;align=center;verticalAlign=middle;whiteSpace=wrap;rounded=0;fontSize=20;fontFamily=Times New Roman;" parent="1" vertex="1">
          <mxGeometry x="34.870000000000005" y="37" width="60" height="30" as="geometry" />
        </mxCell>
        <mxCell id="LuIQuzxRRM_9D2CJ-Mg1-33" value="/CD" style="text;html=1;strokeColor=none;fillColor=none;align=center;verticalAlign=middle;whiteSpace=wrap;rounded=0;fontSize=20;fontFamily=Times New Roman;" parent="1" vertex="1">
          <mxGeometry x="63" y="37" width="60" height="30" as="geometry" />
        </mxCell>
        <mxCell id="_X_wQeAnboRp82JoMJb7-1" value="" style="shape=image;verticalLabelPosition=bottom;verticalAlign=top;imageAspect=0;aspect=fixed;image=data:image/png,iVBORw0KGgoAAAANSUhEUgAAAhQAAAJTCAYAAABQJ48xAAAABmJLR0QA/wD/AP+gvaeTAAAACXBIWXMAAA7EAAAOxAGVKw4bAAAAB3RJTUUH4wsQFTsHw/a+AgAAIABJREFUeNrt3W1sXfd9H/DfJS8ligolyg+tPKO04tkUDWSK/KYtMMcWG6JrDCiRt0xGXjiWlxR9UdSS46VeuswE2w1O0mVW0r3bFivyi23FAMvO1vaFXMrq9mLDUCtaUSsM4NksGstWLMnSLFESybsX91KmZD7ch3PvOeeezwcwLFHk5bn/8/S9/985vxMBAAAAAAAAAAAAAAAAAAAAAAAAAAAAAAAAAAAAAAAAAAAAAAAAAAAAAAAAAAAAAAAAAAAAAAAAAAAAAAAAAAAAAAAAAAAAAAAAAAAAAAAAAAAAAAAAAAAAAAAAAAAAAAAAAAAAAAAAAAAAAAAAAAAAAAAAAAAAAAAAAAAAAAAAAAAAAAAAAAAAAAAAAAAAAAAAAAAAAAAAAAAAAAAAAAAAAAAAAAAAAAAAAAAAAAAAAAAAAAAAAAAAAAAAAAAAAAAAAAAAAAAAAAAAAAAAAAAAAAAAAAAAAAAAAAAAAAAAAAAAAAAAAAAAAAAAAAAAAAAAAAAAAECBlQwBrO7co6PfnL1Y+ufXrkR/RERvOeb6Byv/+tb/cuobRqf7vP/F0edmL5b+6fxclCMi+tbHbP9g5V9t+c+n/qXRAYECmnL+S9u/euG9nn+33L+tH6g89Ys/OnXQKHWPd3ePHrhyqfT8cv+26RcWfnPoP/7k3xslWF6PIYCVXfl/pT9Y5Z+fMULdZWG+9FyT2wIIFIYAlndmz+jwlUulrSueYC6Vtp7ZMzpspLrDOw+P7lgsa1nfIFBAYkq9MZHE95APfRtiv/UNAgUkbv5qPJzE92B9g0ABBbVWuWORafDire/Tu0eHjBgIFFDfp9W5eLre7zUNnn+NrMO+9S7GBYEC6j/B1D21bRq8CwJkA+tw7lp80YiBQAF1uXapdE+936vskW/1ljua2TZAoIACe/+Lo88tLDT2M8oe+dVIeSsiYmGhuo0YORAoYFXNTGkre+RXqRR7O7GNgEABBdPMlPa12fqnzMmO07tHh5pZd8oeIFDAqpopd0SYBs+rvvXxjPUNAgUkrpWpbNPg1jcIFEBEtDaVbRrc+gaBAoh3d48eaGb6e5Fp8Hxptry1dH2f+YejXzWSIFDADUq98Xirr2EaPD+SWFeVhfhtIwkCBdzg2uXSp1p+DdPg+VnfCayrJLYZECigi5zdO7p3fi7Krb6Oskc+tFruWDQ/F+Wze0f3GlEQKCAiIuauxjcSey1lj+yv7wTXUZLbDggUkHNJTl3PzZa2GdGMB4oE15GyBwgUEBHJlTsWmQbPtnd3jx6wvkGggOQ/rbZhyto0eHYlcTeP9Q0CBXxMO6asTYNb3yBQQIGc3bv94SSnvxeZBs/q+k62vHXj+t7uibMIFFBU83Ol32rXa5sGz552rpN2bksgUEDWTzCzpV9v12ubBs+edq6Tdm5LIFBAhp19dPSBa1eiv32fWJU9MrW+21TuuB5WrkT/2UdHHzDSCBRQMPPX4uvt/h3KHtnRiXXRiW0KBArI2gmmA1PUyh4ZCpBXS6PdsE2BQAEZ0u5yx/WTmKv/s7G+925/uBPrW9kDgQKK9mm1g1PTrv5PX2Vd6Zlu3LZAoICUdXJq2jR4+q6eLf2y9Q0CBSTqnYdHd3Ri+nuRafB0daq8ZX0jUEDB9G2I/Z3+nabB05PG2M9fi9828ggU0O0nmKvR8YskTYOnJ42xX7gWu4w8AgV0sTN7RoevXCpt7fTvNQ2ejk6XOxZduVTaembP6LA1gEABXarUGxNp/W5lj2KNeZrbGggU0O4TTArljkXKHsUa8zS3NRAooI3SKncsUvborE7fzXMzZQ8ECuhSWZiCdvV/55T703+OirIHAgV0oSxMQbv6v3PmZkt7bHMgUECiTu8eHUqz3LHINHhnnNkzOpxmucP6RqCALtW3Pp7JyrKYBi/WGM/PxdPWCAIFdIm5a/HFzJxgTIMXaoxLpdhrjSBQQJe4dql0T1aWxTR4e6V9N89y69taQaCALvD+F0efW1jI1jIpexRrbN//4uhz1gwCBeRclsodi5Q9ijW2WdwGQaCABmWp3LFI2aM9snI3Tx62QRAooAFZLHcsUvZog0pMZnGxFhaUPRAoINeyPNWs7NGGkJbhOyqUPRAoIMeyPNXs6v82rO/Z7I6psgcCBeTU+S9t/2pWyx2LTIMnO5ZZXt/KHggUkFNXL5cy/yAu0+DFGkvrG4ECcuja5dKnMr+MpsELNZbWNwIF5MzZvaN75+einPXlNA2ejKyXO5au77N7R7XiRqCAvJi7Gt/IzbKaBi/UGOZp2wSBgsLLQ7nj+rKaBi/UGOZp2wSBgkLLS7ljkbJHa849OvrNPJQ7Fs3PRVnZA4ECciCPU8rKHs27OhuP20ZBoIDE5XFKWdmjhZPzbGmbbRQECkjU2b3bH85TuWPRwkLEu7tHD1iDjTn/pe1fzeP6VvZAoIDMH6hLv5XXZS/15m/qPm15aF62EmUPBArI8kF6tvTreV120+DFGjPrG4ECMurso6MPXLsS/XldftPgDa7vnN3Ns/z63u6JswgUkLkD9LX4et7fg2nwYo1Vnkt0IFDQvSeYHJc7FpkGL9ZYdcM2CwIFXSXv5Y6PPrEqe9S1vnNe7rgeiq5E/9lHRx+wRhEoICsn4i4od1z/1KrssabKuvht2y5kS8kQ0A1mvzNypfLT0rqF+e54P++/Leuv5ta7FrriffT0RpTurVzt/93p9dYqeVc2BOT+E/13Rh6IO2JdfKIS8UZ3vKfevoj5a9btSmOzfmOlO97MfRExGOvmvjPyQPl3p/+7tUuuA7IhIPfW16a/ByNiuDve0sBQxXrt9rEZrm2zERHr4mlrFoEC0tYXu67/eWtEbM7/W9q4ZcF67eax2VzbVuN6oPhVaxaBAlI09+2R4Ri84dAccU9EDOR8xyxXp/a5UW9fdWxybaC2jS41GFvnvj0ybA0jUEBa+mLi42ediLi79v88n3eUPbpvTFbbNpfblkGggA7pj4dX/BR4V77fmrJHF47J3bHy7NlK2zIIFNBey5Y7lrotYpV/zf7Oqexx44f7vJc7tkbEllX+XdkDgQJSUs8U8XDk+iJNZY8uGYvNUd8dSMoeCBSQgnqniO+J3F5PoeyxZHUP5jRQ9MbHL8JsdZsGgQKSsWa54+YD+n053UHLET320ujpiejrz2mguK+BQKvsgUABHdbo1PBA5Lbp1YbNyh65HYPhaPwWZmUPBArooGamhrdG9ULNnBnYIlDkcgyavShY2QOBAjposMn7N+6K3DW96uuvFLrskctyRyu3LQ/E1tO7R4fs5AgU0GZz3x15rukfzmnTqyKXPXL33lvdxnojbtu18Iw9HYEC2m197G350+PdOfvAW+CyR+7e+2rNqzq1jYNAAXX4RAJxYEvkqulVUcseuSt3rNW8qpPbOAgUsLK57448l1i5ImdNr4pY9sjVe663eVU9elss7YFAAWtIeio4R02vilj2yM17Xh/1N69Ka1sHgQKWSHoqOEdNr4pY9shNuePeNgRTZQ8ECmiPRMsdN3wMjtxcpFmkskduWm0ncRHmCmFX2QOBAtqhnVPAt0Uuml71bypOoNh4Sw7ea7u3G2UPBApog3ZPAeeg6dX6jcUJFOs2ZPy9ttK8KivbPAgUFM3cd0cOtP3iyd5oTy086U/uBbg4s3+wEqUsH506ta30Rsx9e+SbjgAIFJCUvni8M1MAkfnrKYpQ9sh8uePu2rbSCRviHzkAIFBAYmeY2NGx37UlIu7M7lBkvhTQ7e/xzkimeVUWt30QKOhmc384sjfWdXhbvTMy2/Sq1JOjOyCakOlyx+YUwua66Jn7wxEXZyJQQMvWxzdS+b33ROemtRv90HpL9waKzL63djSvyvo+AAIF3XWGSWnKd/HCuwzq5rJHJt9b2hfsKnsgUEBrUil3LJXRplfdWvbIbLkj7VuKlT0QKKBFWZjqzWjTqw1deLdHJt9TVta/sgcCBbQgK1O9GWx61a0zFJmSpRkqZQ8ECmjO3MGRh1MtdyyVwaZXpZ4cPTyrDn39GSt3ZO0aGmUPBApo9owZz2RqedZHxEi2hugTt3ZPoMjcexmJ7N3lo+yBQAFNGIhfztwyDUamml51U9kjU+/lztq6zpoNMerAgEABDZ9hoj+Ty5WhplfdUvbIVLkjjeZVed8nQKCAJmWo6VU3lD0y8x7SbF4FAgUUUIYu0uyGskcm3kNOnjYLAgU06mosZHr5BqJ6O2nK8l72yEy5I4O3Budun0CggEz6MP535pcxI02P8lz2yMSyb41MNi/L5T6BQAGZsyl+M+ZzsJx3p//Jdv3G/AaK1Jd9ICKGczBQ8xFxOf6xAwMCBTSovG/6ZJyNH+RiYVOuvfeUI3r78reOe/uqy57eAkTEfTkZrLPxg/Iz0zOODAgU0Eyo+Nr0V+JMDkJFBppeDQzlb5Yi9WUeiXxchHkmflD+2vRXHBEQKKDVUHE6Ho3ZmM30gqbc9Grjlvxdr5fqMg9HNptXLTUbs3E6HhUmECggqVDx9ek/jrOxPT6INzO9oCk2vcpb2SPVcsfmqF6ImWXn4kScje3lr0//sSMAeVAyBOTN3HdHnotb459ldqp6PiLeiIhLnf/VF8/0xMUz+ditB2+vxODtKcxQDET1uoksbz/vx7fKT097bge5YoaC3Ck/Pf2NeC8+k9kSSG9U7/xI4YSVp7JHKsua4rqpy4dxId6LzwgT5JEZCnJt7nsjr8Ut8WAmF+7nEWkUaN79aW/MX8v2euvti/jFe1O4J/juyG6/ibNxvLx/+iF7NXllhoJcK++ffijei6cy2UHwtkilTp+Huz1SWcasNq+6GgvxXjwlTJB3ZijoCnPfHhmOwfifMZjBS+3+Kjp6PcXCXMTp6WzfC3n73QudbRc+EBGfyuBAXIzTcTF+RX8JBArIWrA4OPJSDMWeTNXI5yPiRO3/HXL6VG8sZPRyip6eiK2jHRyM3ojYGZG5beJ8HCkfmH7EXku3UPKgq5QPTD8SZzLWs6I3Ot70asPm7JY9Or5sWbujYzZm40w8KkwgUEDWQ8Viz4pzcSIzCzUYHX1exMCW7AaKji7bcGTrCaJ6S9DFlDzoapnrWfGTiPigM78qi2WPjpY7bovqXR1ZoLcEBWCGgq52vWfFh3EhEwt0T+c+MWex7NGxZRqIiLsy8qb1lqAgzFBQGJnpWXEpqp002/xB/dpsKc68ma3PDB25u2PxCaJZKHXoLUGBmKGgMDLTs6JDn577+ivRk6E9vKcnOnOr6N0ZCBNXYyHm4wlhAoECujVUPD19MH4en4yLcTrVBelQ06sslT06sixbI2JLym/0YpyOn8cny/umD9njKBIlDworEz0r2nyRZpbKHm0vd2yOiO0pvsH5iPgg/lN5//SX7F0UkRkKCisTPSvuibb2SMhS2aOtYaK3NpZpWewtIUxQYGYoKLy5b48Mx4Z4ObbEzlQW4FJU23O3yQfv9MSH59Ld1fsHK3HLL7Xx0pVPRXrXTZyLE+Unp++3J1F0ZigovPIz0zPlJ6fvj/fiW5HCAzBjINra9Kp/U/rXUWy8pY3LkNZFmPMR8V58S5iAKjMUsMTcd0YeiE3x32JjbOr4L38zqo88b4Of/XW6nb3uGJ2PUjs+vqTVvOrDuBAfxN/zUC8QKGD1YJFGz4r5qPanaMOTSc/+TU/MXkxnd29buWMg0nlOh94SsCwlD1hGKj0remuftttwgmxrySGN390bEfd2OExcjYU4HY8KEyBQQGOhIo2eFQPRlin8dRvSCxRt+d13R8T6Dr6Jxd4SHuoFK1LygDp0vGfFTETSMSaNskdbyh131v7rhPmIOBs/KH9t+iv2AlidGQqoQ8d7VgxHtVFTgtIoeyT+Ozd3MEws9pYQJqAuZiigAXMvjgzFuZjqSM+K+Yg4EYk9RKyyEPHOqc5ewZjo3R3ro9pvohNvQW8JaJgZCmhA+bHp8x3rWbH41MykPj30VEsQndI/WEn2VtFOXISptwQ0f4wxBNCcuUMjO2I2/qLtPSt+HtUeFQm4/EEpzv1tZz5HbLlzIbkHgt0d1Z4T7aS3BAgUkGqw6ETPioSaXnWy7JFYuaMTzav0loCWKXlAi8r7px+K+XiirT0r7opE2kuXetr8kK6avv6Eyh0DtffeLnpLgEABmQoV+6YPtbVnRYKNnD5xa/sDRSK/o93Nq/SWgEQpeUDC5v7NyH+IW+KftOVEeC4iftraS3Si7JFIueO+iBhsw8LpLQFtYYYCElb+2vRX2tazYku03Ieh3WWPRModd7YpTOgtAW1jhgLaaO77I6+3pWfFTyLig+Z/vJ13e7R8d8fmiNjehgXTWwLaygwFtFHbelbcEy09y6Kd/Shaeu31tfeWpPmI+Fn8C2EC2ssMBXTA3LdHhmNz/J9Ee1Zcioi/av7Hz7zZE9dmkz0E9PVX4va7m7zZZbGR10CCC6S3BAgU0JXBIumeFS00vWpH2aOlckfSzavejz8rH5j+nK0OOkPJAzqovH/6oTgdjybWs+K25k/C6zcmX/Zo+jVbeB8fs9hbQpgAgQK6OlR8ffqPE+1Z0WTTq55yRG9fcu+rt6/6mg0biOQ6YX4Qb+otAelQ8oAUJdaz4kpUr6do8OLPi2d64uKZZA4Dg7dXYvD2BideeqP6BNH1Lf5yvSUgdWYoIEWJ9axYHxEjjf/Yxi3JdQtv6rVGEggTszEb78VnhAlIlxkKyIhEelb8be2/Brz7096Yv9basvf2RfzivQ1OjwxHxNYWB01vCcgMMxSQEYn0rLgzqo2hGjAw1PrFmQ2/xuYWw8R8RLwXTwkTkB1mKCBjWu5ZMR/V6ymu1PftC3MRp6dbu4hj68h8/RdkDkS130Szv1JvCRAogAaCRSs9Ky5FxBtR90WarZQ9Gip3tNq86v04Uj4w/YitA7JHyQMyqqWeFQNRvZ203m9voezR0M82eYvrkt4SwgQIFEDDoaKVnhUNNItq5W6Pup/dsTWaa16ltwTkgpIH5ETTPSv+KqolkDWcPtUbCw3mip6eiK2jdZQ7BqLab6IRektArpihgJxoumfFvVHXBZDNPIOjrp9ZvG6iEXpLQO6YoYAcarhnxcWoXqS5imuzpTjzZmOfMW6/eyH6+tcIFfdFxGADL3ou/lf5yelfsZYhX8xQQA413LNiMKo9KlbR11+JngaOCD09sXaYGG4gTHzUW0KYgBwyQwE51nDPip9ExAcr//MH7/TEh+fqOyxs3FKJzXesctHFbVH/Q78uxum4GL+itwQIFECaweLgyJ/GrfEbdc0CvBErXqTZSNlj1XJHI82r9JaArqDkAV2gfGD6c3X1rOitzRqscKKvt+yxarljjd9x3WzM6i0BAgWQtVBRb8+KNZpe1XPnxqrfc3es3bzqg3gzzsZ2vSWgeyh5QBeqq2fFTMRy0aOesseK5Y6tUb0QcyXzEXEm/m3569O/Yy1BdzFDAV2o/LXpr8R78ZlVe1YMLz+TUE/ZY9kwsXmNMLHYW0KYgK5khgK63Ko9K+Yj4kR87CFiq93t0T9YiVt+6aZLNXojYmesfN2E3hLQ9cxQQJer9ax4atmeFb0RMbJMaNi08jUSG29Z5t9WuqNDbwkoDDMUUBCr9qw4HdVrKpb42V8vP91wx+h8lJZ+FBmO6rUTN9NbAgQKoIuDxcGRl+LW2POxf7ip6dXZv+mJ2Ys3HiI+Vu5YqXmV3hJQOEoeUDDlA9OPLNuz4p644SLN5UobN3xtudtP9ZYAgQIoUKhY7FnxQbx5/Ys3NaRat+HjgeL615ZrXqW3BBSakgcU3Md6Vvw8YjFmLC173FDuuDcittS+fz4i3o9vlZ+e/obRhOIyQwEF97GeFbfF9Yssl5Y4rv/5ziVh4sO4EO/FZ4QJwAwFcN0NPSt+ElE5F/HOqerUxR2j81HaEhHba998No6X908/ZNSACDMUwBI39Ky4J6LUVy119A9WorSh+rW4GgvxXjwlTABLmaEAPuZ6z4pSbLr8P6qHiQ1/vxIxr7cEIFAAjQaLgyN/GrPxGxER0R9/Vj4w/TmjAgA07Mo3t//elW9u/z0jAQAAAAAAAAAAAAAAAAAAAAAAAAAAAAAAAAAAAAAAAAAAAAAAAAAAAAAAAAAAAAAAAAAAAAAAAAAAAAAAAAAAAAAAAAAAAAAAAAAAAAAAAAAAAAAAAAAAAAAAAAAAAAAAAAAAAAAAAAAAAAAAAAAAkHfvPDy6wyhAMfUYAiAJM5+977VrV0o/nvnsffuMBggUAM2EiT0R8WDtr580IiBQADTje0v+/LrhAIECoCG1Esfw4t/XDVSOGRUonpIhAJp1evfo0NVLpbcjYlPtSyeHX33j00YGiscMBdC0q5dKTy0JExERJ4wKCBQAdTu9e3QoIg7c9OUpIwMCBUDdrl4qfS9unJ2IvvWVvzQyUEyuoQAadmbP6PDli6W3b/ryheFX39hsdKCYzFAADbt8sfTiMl92/QQIFAD1mfnsfbvioyZWSx0zOiBQANRrcoWvuyATBAqAtdWaWC03OxHrBipKHiBQANRlpdmJk1t/dOq84QGBAmBV7+4ePRBLWmwvtW6DdtsgUACs4fTu0aErl0orzU7E1cslDwQDgQJgdcu02L7BhsHKnxslKDaNrYBVrdDEaikNrQAzFMDqLl8s/cEa33LMKAECBbCidx4e3RERX17j29wuCggUwMquXSn9UR3fpqEV4BqKbjA+NrGrk7/v6NTksQy9920Rsa1LV+2Jo1OTqfV2qLXYXjMsDL/6Rinj+8fOiBgqynpL8X236q2jU5NvOaILFHTuAPFIROysnUR3pLxIxyPirYh4PSKOdPpgMD42sS8iXujiVX4hIr6QVoCb+ex9P65jGzs5/Oobn85QuNwVEffX9pEHU16kmdr+cSwiXj86NXmkg2Pxw1i7VJXl7f5E7b+piDiWhYCGQNENIWJbRDwVEftildv2MmImIp6PiEOdOACMj028HSs0WuoirxydmvxCCmGirrC2bkPl+1v/66n9Ke8j+2r7yI4crM/DEfFCO0Pi+NjEUESc67b9oDZuRwKBgqaCxGROP2VciIiDEfF8O4PF+NhEpQCbwvGjU5MPpRAo6g1rjwy/+saRlPaRfbV9JI+h8nhE7D86NXmiDeOyK7r3upaTtXE7FmSOizKzGSb2RMSPI79Tlpsi4tmI+HGtTEOOzHz2vrpP0hsGK3+Zwv4xND428VpUZ1DyOkP1YES8Pj42MWmLa8iOiJgaH5v4nqEQKKjvU9dLkf3yRj2GI+I1oSI/Tu8eHYqIA/Vmj9uPnJrp8P6xMyJei/Svj0jKs7XrHWjMk8ZNoGDtMNFtFxluEipypBKTDYTZEx3eP4Yi4oeRj2slGvFlJ0fjJlCQ9Cevbr1jYVNEvFw7IZBRZ/aMDl+9XHqy3u9fP1DpdJ2+G8PE0pPjAVthU+O2xzAIFNyo22uCw1G9gI6MqqPF9g2uXCp1bIaidtL4fJevgkmh27FToKDVg+W+6J6a8GqerN29QsbUmlg1dBHw8KtvHHPSSNSmqN7+SoMfVmrHUAQKIuIJ75W0Px03+P3HOxi490T39xtZpOzRHEFMoKD2if3BAr3lJD9JHC7AeLV9FqA2O9HQNrhuQ6WTF2Q+UqD9Y5NrApqyw+xn+sqGIHW7Enytdn5qHIpkLogbHh+b2JZQm+79UW37nfQJZ1sTn4hPRkTSTbxeOjo1ebAD22DDV8pfvVzq5AWZSZ1gF1tht8vOSOZ270ciotPNwhbbXafhwQS3k4OBQFFgYwl8Sn++HR33llP79PRItNZ0a1dEHGp1WWpdOA8mfRCpNRt6ttFwk8fufbUW2w2XE9YNVI51aHtr9SQ9ExETUX3WTCfawW+rndgmW1juNG6xPpFGR9ab1vMT0dojBu53OhEoim5bC58oHupUkFhyEj8SEUfGxyZeiIiXm9z5P2m1p+/07tGhq5eauthxZuuPTp3P+P4REfH7R6cmJzq8f7wVEQfHxyYORXXmp5k7U3YUbVusHcf2144rzd4evM1enS7XUKSv2em+joeJmw4AxyLi8RZmKEjZ1Uulp5oMhMc6uJjNfuo83OkwcdP+cb62fzTVSbSojeBqx7Qv1D4wdepYikBRaIfTDBM3zVactDryOTsRTd5RsH6g8noO3uL+DOwf56NabmlGYftR1GZ5DtlLBQo64wXLQiuuXip9L5qsVS/Mx593cFG3NfEzr3Tieok6T45OjI4rAgWZTvDHMrQ4zcyUmJpM0Zk9o8PRwkW1d/zJqU7OSm3r0DbZTsdtdQ0f404YBYGC9pvJ2PLY8XPm8sXSH3X5yXEqY8tz3lbXFcc6BIqu81bGPkk4WObpCF1tYtXKMzGOGUWhu4jHOgQK4EatPqDtdUMICBRkxQVD0Hkzn71vT7R4/UqnGloBAgXUY78hSEWrT+w82cGGVkV2Mo9dV0GgoNMOu5Wu897dPXogWn9ip2sB2u9CVBs7Qe5ovU1SB8GVehrMRPVBR1MRccxFnJ13evfo0JVLpckEXmrKaLbFK0v2D6ENgYJC2x8fNaK5ENU7AV6qHSDfMjzpaqHF9nW9fRE9PZW/NJpNeT6qDwxbfD7FycWQrbSBQAFLHJ2aPDQ+NnEkIrb5hJUtZ/aMDl++2FyL7aX6/27l0uZfXXg6/qTp57cUef84HxGfrj2f4y2zdAgUsPZBU5jImMsXS38QLc5ORET03V45HxFfnntxJMqPTQsVze0j9g+6mosyoUu12mJ7qYFfqCweK7489+LI94wuIFBAQdRmJ5IxGFuX/O3JuUMj+4wwIFBAMexJJEvcXvn4F3vjBaECECigGDYl8SK9o5WfLf8PQgUgUEARJPK0xoHbKrMrpw2hAhAooNsdSuJFKoPxd1b9hmqo2GG4QaAAutC6gcrzUW2i1LT+wUqUeqJ/zW/sjb8QKkDt0tyIAAAId0lEQVSgALrQ1h+dOr9uoPJQK6Gi9864VOe3bhIqQKAAujhUbBis7I4mHxlfa2hVL6ECBAqgW91+5NRM3/rKZ5oJFUsaWjUWKl4cGTLyIFAAXeaOPzl1stFQ0dsXNze0qj9URLwmVIBAAQgVMTBUaeXX7RAqQKAAuj9UrGnFhlaNhYqXjToIFECXhoqIeGKt72vi+onlPKjxFQgUQJcafvWNQ2uFisrGSKZc0RtjRhwECqCAoaLuhlb12Wa0QaAAChgqGmhoVY8TRhoECqAYoeLw0q812NBqLS8ZZRAogGKEiseXhoqBrZVPJPTSx8uPTR8zwiBQAAULFb19EbExNiXyovPxO0YWBAqggKGi/7bK8YRe7nB53/RJowoCBVBAm//BwrEEXuZCREwYTRAogOLalcBrHCw/Nv2WoQSBAiiuB1v8+QsR8bxhBIECKKi5QyM7EniZifJj0+eNJggUQFH1xq+1+Aoz5cemDxpIECiAYmvtuRvzLsQEgQIgYmcLP3u8vG/6kCEEgQIosLkXR7ZFxHALL2F2AgQKgBZnJ7TYhkIrGwJaNT42MRQR+yJiS0S8fnRq8ohRyaVWrp943PCtuo/sqo3vuYg4cnRq8i2jgkABH/dyLOldMD42ERHxSlSfMnnMwTM3mp2hOKyJ1ZphYmrJl54fH5s4GRHHIuKFo1OTHu+OQAE1yzVC+nztv6gdPI9ExEsOnrlbj2u5EBH7Dd2qlpv52VH778nxsYkLtf1jKqqzF3p4kEuuoaATdkTEsxHx+vjYxGuGI3vmXhzZ1eSPHtTEqmWbIuLLEfFCRJwbH5vYaUgQKKCOT8HjYxOThiFzmjmJabHdHi/XrksCgQLW8KwhyJzGL8icj/1mJ9piOFq74wYECiA1uxr8/hlNrACBAriu1tBqU4M/5kJMQKDIObVVkjXf8OzE8fJj03qN2GdBoMi5HVlamNo99uRZb9zf4E9kvcX2TsvTFR40BAIF7T+Jb8vQ4jSzLCetxUxpJBQezkGL7fsztjwCRb6PcQgUXW1PhpblkSZ+xp0B2dLIrFenZyeO5Xn/qPWU2GQTy/UxDoGiq01m4T712sHy81ZHfjXY0Or7OWmxvWl8bOJAVvZVW1nDx5WhiHjKSAgUNG6mmQNmRPwwzVBR+90/bPLH37LaM6Pe/hMXIp1rJ861ELpTLTWMj03sayFwF7lF/fei2oujE8dSBIqu0uzJ9fMR8dr42ETHpwZrB8q3o/kLRAWK7Kj3pJtWi+1mT6ybotrqfbLT9fjxsYlt42MTL0e1lXYzLhTxeR7jYxO7xscmfhzVNuSOKznk4WDpOxbNX828IyJeqj1c6NiSg+9Ugss3FB9d5LardgJqtSbc8vLVZkja9Qm0mRPQztpTVhN3dGryWBu3v111fvJLpcX20anJYy2O67MR8eySp3uej4j/m/DJZ2dEbKltNzuj9Tux0pidGErhjq2xJeO3s8lZiZuPpQgUhTYVrbei3hRLnu4ZGW9t3eoJshYm3o5sXezWthPu+NjE4aNTk48n/bp1N7Saj4nyvlRbbJ9M4CS9IzJ2y/UqXkrhd+5I+INIGl53OkmXkkc2Tq4XCvSWX0ngNfZEsa6c/3JbXrW+hlZZaLH9QsEOC5qGNe7C0alJ4yZQEBEHC/Rekzg5fNImk4Deui7IfDwDS3qoQGvl+NGpybdsnEKYQEGzno9izFKc9CkiU9a6BuV4FppY1S5QPFyQdTJhszRuAgWtHjCLMEvhgVIZMffiyFCsdU3BfPxOxradbg/dx9t8AW63+r5ZHYGCG0PFRHR3S+rvO1hmylqzE4fL+6ZPZmj/OB/ZKL+0y4WI+ILNsmEzYXZCoGBZD3VpqDh8dGrS7ES2rHX9ROYO0rVy2RNdGiYeKmLviSRCmHETKFj5U1i3hYq23PJIy3at8m+/n9UW20enJg91WahYDBMnbJINmTFuAgV1hIqjU5Ofjojf74ID5SPCRGbtXGW9PZ/xfeRQVJut5T14vxIRdzkpNjVunzZuAgX1HzQnonp75OHI18VoM7UwdJc7OrJp7tDIjli5j0daLbYb3T9O1IL3E5G/Zzi8EhFjR6cmTdc35rhxy7aSIci+WmfIPVF9VPiuyF5Tp5motr19qRMhovbQpyJ1xZs5OjV5V4KBYl/0LtsPZKb82PRdOd1HdtbCxa7IZkfMV6LaifJIJ+5IGB+beDtab2WdlRDxUqfGDYGiiAFjW3z03IAttS/v6sCvPh8fPWdg8XkIJ9L4tFB7KNoTUX3WSDd7KyImkjyYzr048sNYrvvmfDyRga6YSW0fu+LG59As7jPtdmzJn6ci4nwaU/O1gPVUh95zEk7Uji9R+7DwlpKGQAFk3NyLI8t9ej1efmz6IaMDNMs1FFCsMDEUy0+Fu5cfECiAuu1a5muZaLENCBRAfty/zNfc2gsIFEBDdt3098NZbWIFCBRAdj245M8XwrUTgEABNKLW0Gqpg2YnAIECaExv/NqSv2W+xTYgUADZtPSCzIk8tNgGBAoge3bV/j9Tfmz6oOEABAqgGYeiWurYbygAAAAAAAAAAAAAAAAAAAAAAAAAAAAAAAAAAAAAAAAAAAAAAAAAAAAAAAAAAAAAAAAAAAAAAAAAAAAAAAAAAAAAAAAAAAAAAAAAAAAAAAAAAAAAAAAAAAAAAAAAAAAAAAAAAAAAAAAAAAAAAAAAAAAAAAAAAAAAAAAAAAAAAAAAAAAAAAAAAAAAAAAAAAAAAAAAAAAAAAAAAAAAAAAAAAAAAAAAAAAAAAAAAAAAAAAAAAAAAAAAAAAAAAAAAAAAAAAAAAAAAAAAAAAAAAAAAAAAAAAAAAAAAAAAAAAAAAAAAAAAAAAAAAAAAAAAAAAAAAAAAAAAAAAAAMiS/w+kC6u/P4ZewQAAAABJRU5ErkJggg==" vertex="1" parent="1">
          <mxGeometry x="510" y="36.34" width="139.5" height="156.02" as="geometry" />
        </mxCell>
        <mxCell id="_X_wQeAnboRp82JoMJb7-3" value="Test" style="text;html=1;strokeColor=none;fillColor=none;align=center;verticalAlign=middle;whiteSpace=wrap;rounded=0;fontSize=18;fontFamily=Times New Roman;" vertex="1" parent="1">
          <mxGeometry x="620.5" y="111.66000000000008" width="60" height="30" as="geometry" />
        </mxCell>
      </root>
    </mxGraphModel>
  </diagram>
</mxfile>
